# 3ds Max Wavefront OBJ Exporter v0.97b - (c)2007 guruware
# File Created: 01.04.2017 01:39:06

mtllib DS_Stair.mtl

#
# object default
#

v  -1.5126 -0.9007 0.1483
v  -1.5126 -0.7330 0.1483
v  -1.8092 -0.7330 0.1483
v  -1.8092 -0.9007 0.1483
v  -1.5126 5.3930 -0.0790
v  -1.5126 5.3930 -0.1483
v  -1.8092 5.3930 -0.1483
v  -1.8092 5.3930 -0.0790
v  -1.5126 -0.7330 -0.1483
v  -1.5126 -0.9007 -0.1483
v  -1.8092 -0.9007 -0.1483
v  -1.8092 -0.7330 -0.1483
v  -1.5126 -4.8074 -0.1483
v  -1.5126 -4.8074 -0.0790
v  -1.8092 -4.8074 -0.0790
v  -1.8092 -4.8074 -0.1483
v  -1.5126 -0.7389 -0.0790
v  -1.5126 -0.9007 -0.0790
v  -1.8092 -0.9007 -0.0790
v  -1.8092 -0.7389 -0.0790
v  -1.5126 -2.6810 0.1483
v  -1.8092 -2.6810 0.1483
v  -1.5126 -2.6810 -0.0790
v  -1.5126 -2.6810 -0.1483
v  -1.8092 -2.6810 -0.1483
v  -1.8092 -2.6810 -0.0790
v  -1.5126 1.1205 -0.1483
v  -1.8092 1.1205 -0.1483
v  -1.5126 1.1205 -0.0790
v  -1.5126 1.1205 0.1483
v  -1.8092 1.1205 0.1483
v  -1.8092 1.1205 -0.0790
v  -1.5126 5.3930 0.0790
v  -1.8092 5.3930 0.0790
v  -1.5126 1.1205 0.0790
v  -1.5126 -0.7389 0.0790
v  -1.5126 -2.6810 0.0790
v  -1.5126 -0.9007 0.0790
v  -1.5126 -4.8074 0.0790
v  -1.8092 -4.8074 0.0790
v  -1.8092 -2.6810 0.0790
v  -1.8092 -0.9007 0.0790
v  -1.9647 -0.9007 -0.0790
v  -1.9647 -0.9007 0.0790
v  -1.9647 -0.7389 0.0790
v  -1.9647 -0.7389 -0.0790
v  -1.8092 -0.7389 0.0790
v  -1.8092 1.1205 0.0790
v  -1.5126 5.3930 0.1483
v  -1.8092 5.3930 0.1483
v  -1.5126 -4.8074 0.1483
v  -1.8092 -4.8074 0.1483
v  -1.5126 -2.8521 0.1483
v  -1.8092 -2.8521 0.1483
v  -1.5126 -2.8462 0.0790
v  -1.5126 -2.8462 -0.0790
v  -1.5126 -2.8521 -0.1483
v  -1.8092 -2.8521 -0.1483
v  -1.8092 -2.8462 -0.0790
v  -1.9647 -2.6810 -0.0790
v  -1.9647 -2.8462 -0.0790
v  -1.9647 -2.8462 0.0790
v  -1.9647 -2.6810 0.0790
v  -1.8092 -2.8462 0.0790
v  -1.5126 1.2916 -0.1483
v  -1.8092 1.2916 -0.1483
v  -1.5126 1.2857 -0.0790
v  -1.5126 1.2857 0.0790
v  -1.5126 1.2916 0.1483
v  -1.8092 1.2916 0.1483
v  -1.8092 1.2857 0.0790
v  -1.9647 1.2857 -0.0790
v  -1.9647 1.1205 -0.0790
v  -1.9647 1.1205 0.0790
v  -1.9647 1.2857 0.0790
v  -1.8092 1.2857 -0.0790
v  -1.5126 3.2337 -0.1483
v  -1.8092 3.2337 -0.1483
v  -1.5126 3.2219 -0.0790
v  -1.5126 3.2219 0.0790
v  -1.5126 3.2337 0.1483
v  -1.8092 3.2337 0.1483
v  -1.8092 3.2219 0.0790
v  -1.8092 3.2219 -0.0790
v  -1.5126 3.4167 -0.1483
v  -1.8092 3.4167 -0.1483
v  -1.5126 3.4226 -0.0790
v  -1.5126 3.4226 0.0790
v  -1.5126 3.4167 0.1483
v  -1.8092 3.4167 0.1483
v  -1.8092 3.4226 0.0790
v  -1.9647 3.4226 -0.0790
v  -1.9647 3.2219 -0.0790
v  -1.9647 3.2219 0.0790
v  -1.9647 3.4226 0.0790
v  -1.8092 3.4226 -0.0790
v  -0.2630 -0.9007 0.0790
v  -0.2630 -0.7389 0.0790
v  -0.2630 -0.9007 -0.0790
v  -0.2630 -0.7389 -0.0790
v  -0.2630 -2.6810 0.0790
v  -0.2630 -2.6810 -0.0790
v  -0.2630 -2.8462 0.0790
v  -0.2630 -2.8462 -0.0790
v  -0.2630 1.2857 0.0790
v  -0.2630 1.2857 -0.0790
v  -0.2630 1.1205 0.0790
v  -0.2630 1.1205 -0.0790
v  -0.2630 3.4226 0.0790
v  -0.2630 3.4226 -0.0790
v  -0.2630 3.2219 0.0790
v  -0.2630 3.2219 -0.0790
v  1.2831 -0.7330 0.1483
v  0.9866 -0.7330 0.1483
v  0.9866 -0.9007 0.1483
v  1.2831 -0.9007 0.1483
v  1.2831 5.3930 -0.1483
v  0.9866 5.3930 -0.1483
v  0.9866 5.3930 -0.0790
v  1.2831 5.3930 -0.0790
v  1.2831 -0.9007 -0.1483
v  0.9866 -0.9007 -0.1483
v  0.9866 -0.7330 -0.1483
v  1.2831 -0.7330 -0.1483
v  1.2831 -4.8074 -0.0790
v  0.9866 -4.8074 -0.0790
v  0.9866 -4.8074 -0.1483
v  1.2831 -4.8074 -0.1483
v  0.9866 -0.7389 -0.0790
v  0.9866 -0.9007 -0.0790
v  1.2831 -0.7389 -0.0790
v  1.2831 -0.9007 -0.0790
v  0.9866 -2.6810 0.1483
v  1.2831 -2.6810 0.1483
v  0.9866 -2.6810 -0.1483
v  0.9866 -2.6810 -0.0790
v  1.2831 -2.6810 -0.1483
v  1.2831 -2.6810 -0.0790
v  0.9866 1.1205 -0.1483
v  1.2831 1.1205 -0.1483
v  0.9866 1.1205 -0.0790
v  1.2831 1.1205 0.1483
v  0.9866 1.1205 0.1483
v  1.2831 1.1205 -0.0790
v  0.9866 5.3930 0.0790
v  1.2831 5.3930 0.0790
v  0.9866 -0.7389 0.0790
v  0.9866 1.1205 0.0790
v  0.9866 -2.6810 0.0790
v  0.9866 -0.9007 0.0790
v  1.2831 -4.8074 0.0790
v  0.9866 -4.8074 0.0790
v  1.2831 -0.9007 0.0790
v  1.2831 -2.6810 0.0790
v  1.4387 -0.7389 0.0790
v  1.4387 -0.9007 0.0790
v  1.4387 -0.9007 -0.0790
v  1.4387 -0.7389 -0.0790
v  1.2831 -0.7389 0.0790
v  1.2831 1.1205 0.0790
v  0.9866 5.3930 0.1483
v  1.2831 5.3930 0.1483
v  1.2831 -4.8074 0.1483
v  0.9866 -4.8074 0.1483
v  0.9866 -2.8521 0.1483
v  1.2831 -2.8521 0.1483
v  0.9866 -2.8462 0.0790
v  0.9866 -2.8521 -0.1483
v  0.9866 -2.8462 -0.0790
v  1.2831 -2.8521 -0.1483
v  1.2831 -2.8462 -0.0790
v  1.4387 -2.8462 0.0790
v  1.4387 -2.8462 -0.0790
v  1.4387 -2.6810 -0.0790
v  1.4387 -2.6810 0.0790
v  1.2831 -2.8462 0.0790
v  0.9866 1.2916 -0.1483
v  1.2831 1.2916 -0.1483
v  0.9866 1.2857 -0.0790
v  0.9866 1.2916 0.1483
v  0.9866 1.2857 0.0790
v  1.2831 1.2916 0.1483
v  1.2831 1.2857 0.0790
v  1.4387 1.1205 0.0790
v  1.4387 1.1205 -0.0790
v  1.4387 1.2857 -0.0790
v  1.4387 1.2857 0.0790
v  1.2831 1.2857 -0.0790
v  0.9866 3.2337 -0.1483
v  1.2831 3.2337 -0.1483
v  0.9866 3.2219 -0.0790
v  0.9866 3.2219 0.0790
v  0.9866 3.2337 0.1483
v  1.2831 3.2337 0.1483
v  1.2831 3.2219 0.0790
v  1.2831 3.2219 -0.0790
v  0.9866 3.4167 -0.1483
v  1.2831 3.4167 -0.1483
v  0.9866 3.4226 -0.0790
v  0.9866 3.4167 0.1483
v  0.9866 3.4226 0.0790
v  1.2831 3.4167 0.1483
v  1.2831 3.4226 0.0790
v  1.4387 3.2219 0.0790
v  1.4387 3.2219 -0.0790
v  1.4387 3.4226 -0.0790
v  1.4387 3.4226 0.0790
v  1.2831 3.4226 -0.0790
# 208 vertices

vn 0.0000 0.0000 1.0000
vn 0.0000 1.0000 -0.0000
vn 0.0000 0.0000 -1.0000
vn 0.0000 -1.0000 -0.0000
vn 1.0000 0.0000 -0.0000
vn -1.0000 0.0000 -0.0000
vn 0.0000 -1.0000 0.0000
# 7 vertex normals

vt 0.3931 0.4164 0.0000
vt 0.4068 0.4301 0.0000
vt 0.3825 0.4543 0.0000
vt 0.3689 0.4405 0.0000
vt 0.9353 0.9121 0.0000
vt 0.9297 0.9065 0.0000
vt 0.9539 0.8823 0.0000
vt 0.9595 0.8880 0.0000
vt 0.4310 0.4060 0.0000
vt 0.4173 0.3923 0.0000
vt 0.4416 0.3681 0.0000
vt 0.4552 0.3818 0.0000
vt 0.0993 0.0731 0.0000
vt 0.0937 0.0674 0.0000
vt 0.1179 0.0433 0.0000
vt 0.1235 0.0489 0.0000
vt 0.4248 0.4111 0.0000
vt 0.4117 0.3979 0.0000
vt 0.3446 0.4647 0.0000
vt 0.3503 0.4591 0.0000
vt 0.3635 0.4723 0.0000
vt 0.3583 0.4784 0.0000
vt 0.2482 0.2710 0.0000
vt 0.2239 0.2951 0.0000
vt 0.2667 0.2525 0.0000
vt 0.2724 0.2468 0.0000
vt 0.2966 0.2227 0.0000
vt 0.2054 0.3136 0.0000
vt 0.1997 0.3192 0.0000
vt 0.5819 0.5574 0.0000
vt 0.6061 0.5333 0.0000
vt 0.5762 0.5630 0.0000
vt 0.5576 0.5815 0.0000
vt 0.5334 0.6057 0.0000
vt 0.5148 0.6242 0.0000
vt 0.5092 0.6298 0.0000
vt 0.9482 0.9250 0.0000
vt 0.9724 0.9009 0.0000
vt 0.5633 0.5759 0.0000
vt 0.4119 0.4240 0.0000
vt 0.2538 0.2653 0.0000
vt 0.3988 0.4108 0.0000
vt 0.0808 0.0545 0.0000
vt 0.1050 0.0304 0.0000
vt 0.2183 0.3007 0.0000
vt 0.3632 0.4462 0.0000
vt 0.2721 0.5806 0.0000
vt 0.2617 0.5999 0.0000
vt 0.2403 0.5866 0.0000
vt 0.2516 0.5633 0.0000
vt 0.3764 0.4594 0.0000
vt 0.5278 0.6113 0.0000
vt 0.9538 0.9307 0.0000
vt 0.9781 0.9066 0.0000
vt 0.0752 0.0489 0.0000
vt 0.0994 0.0247 0.0000
vt 0.2342 0.2570 0.0000
vt 0.2100 0.2811 0.0000
vt 0.2404 0.2518 0.0000
vt 0.2533 0.2390 0.0000
vt 0.2585 0.2328 0.0000
vt 0.2827 0.2087 0.0000
vt 0.1919 0.3001 0.0000
vt 0.1858 0.3053 0.0000
vt 0.1065 0.4208 0.0000
vt 0.1099 0.3909 0.0000
vt 0.1335 0.3917 0.0000
vt 0.1317 0.4196 0.0000
vt 0.2048 0.2872 0.0000
vt 0.0751 0.0972 0.0000
vt 0.0508 0.1214 0.0000
vt 0.0807 0.0916 0.0000
vt 0.0936 0.0787 0.0000
vt 0.0323 0.1399 0.0000
vt 0.0266 0.1455 0.0000
vt 0.0452 0.1270 0.0000
vt 0.5958 0.5714 0.0000
vt 0.6200 0.5472 0.0000
vt 0.5897 0.5765 0.0000
vt 0.5768 0.5894 0.0000
vt 0.5716 0.5955 0.0000
vt 0.5473 0.6197 0.0000
vt 0.5412 0.6248 0.0000
vt 0.4308 0.7468 0.0000
vt 0.4121 0.7233 0.0000
vt 0.4293 0.7071 0.0000
vt 0.4478 0.7281 0.0000
vt 0.5283 0.6377 0.0000
vt 0.5231 0.6438 0.0000
vt 0.7539 0.7301 0.0000
vt 0.7781 0.7059 0.0000
vt 0.7473 0.7347 0.0000
vt 0.7344 0.7476 0.0000
vt 0.7297 0.7542 0.0000
vt 0.7054 0.7783 0.0000
vt 0.6988 0.7830 0.0000
vt 0.6859 0.7959 0.0000
vt 0.6812 0.8025 0.0000
vt 0.7688 0.7450 0.0000
vt 0.7930 0.7209 0.0000
vt 0.7636 0.7511 0.0000
vt 0.7507 0.7640 0.0000
vt 0.7446 0.7691 0.0000
vt 0.7203 0.7933 0.0000
vt 0.7152 0.7994 0.0000
vt 0.5951 0.8927 0.0000
vt 0.5758 0.8624 0.0000
vt 0.5947 0.8483 0.0000
vt 0.6139 0.8767 0.0000
vt 0.7022 0.8123 0.0000
vt 0.6961 0.8174 0.0000
vt 0.9240 0.9121 0.0000
vt 0.9111 0.9250 0.0000
vt 0.9054 0.9306 0.0000
vt 0.8812 0.9548 0.0000
vt 0.8756 0.9604 0.0000
vt 0.8626 0.9733 0.0000
vt 0.8570 0.9789 0.0000
vt 0.4788 0.2768 0.0000
vt 0.6188 0.2716 0.0000
vt 0.6195 0.2897 0.0000
vt 0.4795 0.2950 0.0000
vt 0.4781 0.2591 0.0000
vt 0.6182 0.2539 0.0000
vt 0.4801 0.3127 0.0000
vt 0.6202 0.3074 0.0000
vt 0.6208 0.3256 0.0000
vt 0.4808 0.3308 0.0000
vt 0.2625 0.5644 0.0000
vt 0.2700 0.5545 0.0000
vt 0.2750 0.5713 0.0000
vt 0.2929 0.5635 0.0000
vt 0.2801 0.5602 0.0000
vt 0.2736 0.5426 0.0000
vt 0.3128 0.1097 0.0000
vt 0.4536 0.1060 0.0000
vt 0.4541 0.1238 0.0000
vt 0.3133 0.1275 0.0000
vt 0.3123 0.0911 0.0000
vt 0.4531 0.0874 0.0000
vt 0.3118 0.0733 0.0000
vt 0.4526 0.0696 0.0000
vt 0.4546 0.1424 0.0000
vt 0.3138 0.1462 0.0000
vt 0.0908 0.4113 0.0000
vt 0.0757 0.4143 0.0000
vt 0.0855 0.3980 0.0000
vt 0.1038 0.4073 0.0000
vt 0.0992 0.3936 0.0000
vt 0.0808 0.3860 0.0000
vt 0.6709 0.4323 0.0000
vt 0.8118 0.4332 0.0000
vt 0.8116 0.4510 0.0000
vt 0.6708 0.4502 0.0000
vt 0.6710 0.4137 0.0000
vt 0.8119 0.4145 0.0000
vt 0.6711 0.3959 0.0000
vt 0.8120 0.3967 0.0000
vt 0.8115 0.4696 0.0000
vt 0.6707 0.4688 0.0000
vt 0.4130 0.7512 0.0000
vt 0.4044 0.7640 0.0000
vt 0.3998 0.7455 0.0000
vt 0.4194 0.7391 0.0000
vt 0.4064 0.7327 0.0000
vt 0.3880 0.7403 0.0000
vt 0.8147 0.5971 0.0000
vt 0.9622 0.5928 0.0000
vt 0.9628 0.6115 0.0000
vt 0.8152 0.6157 0.0000
vt 0.8140 0.5734 0.0000
vt 0.9616 0.5691 0.0000
vt 0.8135 0.5547 0.0000
vt 0.9610 0.5504 0.0000
vt 0.9635 0.6351 0.0000
vt 0.8159 0.6394 0.0000
vt 0.5774 0.8944 0.0000
vt 0.5655 0.9086 0.0000
vt 0.5619 0.8907 0.0000
vt 0.5818 0.8782 0.0000
vt 0.5673 0.8732 0.0000
vt 0.5486 0.8777 0.0000
# 182 texture coords

g default
usemtl _DS_StairinitialShadingGroup
f 1/1/1 2/2/1 3/3/1 
f 3/3/1 4/4/1 1/1/1 
f 5/5/2 6/6/2 7/7/2 
f 7/7/2 8/8/2 5/5/2 
f 9/9/3 10/10/3 11/11/3 
f 11/11/3 12/12/3 9/9/3 
f 13/13/4 14/14/4 15/15/4 
f 15/15/4 16/16/4 13/13/4 
f 17/17/5 18/18/5 10/10/5 
f 10/10/5 9/9/5 17/17/5 
f 11/19/6 19/20/6 20/21/6 
f 20/21/6 12/22/6 11/19/6 
f 21/23/1 1/1/1 4/4/1 
f 4/4/1 22/24/1 21/23/1 
f 23/25/5 24/26/5 10/10/5 
f 10/10/5 18/18/5 23/25/5 
f 10/10/3 24/26/3 25/27/3 
f 25/27/3 11/11/3 10/10/3 
f 26/28/6 19/20/6 11/19/6 
f 11/19/6 25/29/6 26/28/6 
f 27/30/3 9/9/3 12/12/3 
f 12/12/3 28/31/3 27/30/3 
f 29/32/5 17/17/5 9/9/5 
f 9/9/5 27/30/5 29/32/5 
f 2/2/1 30/33/1 31/34/1 
f 31/34/1 3/3/1 2/2/1 
f 20/21/6 32/35/6 28/36/6 
f 28/36/6 12/22/6 20/21/6 
f 33/37/2 5/5/2 8/8/2 
f 8/8/2 34/38/2 33/37/2 
f 35/39/5 36/40/5 17/17/5 
f 17/17/5 29/32/5 35/39/5 
f 37/41/5 23/25/5 18/18/5 
f 18/18/5 38/42/5 37/41/5 
f 14/14/4 39/43/4 40/44/4 
f 40/44/4 15/15/4 14/14/4 
f 26/28/6 41/45/6 42/46/6 
f 42/46/6 19/20/6 26/28/6 
f 43/47/6 44/48/6 45/49/6 
f 45/49/6 46/50/6 43/47/6 
f 32/35/6 20/21/6 47/51/6 
f 47/51/6 48/52/6 32/35/6 
f 49/53/2 33/37/2 34/38/2 
f 34/38/2 50/54/2 49/53/2 
f 36/40/5 35/39/5 30/33/5 
f 30/33/5 2/2/5 36/40/5 
f 1/1/5 38/42/5 36/40/5 
f 36/40/5 2/2/5 1/1/5 
f 37/41/5 38/42/5 1/1/5 
f 1/1/5 21/23/5 37/41/5 
f 39/43/4 51/55/4 52/56/4 
f 52/56/4 40/44/4 39/43/4 
f 41/45/6 22/24/6 4/4/6 
f 4/4/6 42/46/6 41/45/6 
f 47/51/6 42/46/6 4/4/6 
f 4/4/6 3/3/6 47/51/6 
f 48/52/6 47/51/6 3/3/6 
f 3/3/6 31/34/6 48/52/6 
f 53/57/1 21/23/1 22/24/1 
f 22/24/1 54/58/1 53/57/1 
f 55/59/5 37/41/5 21/23/5 
f 21/23/5 53/57/5 55/59/5 
f 24/26/5 23/25/5 56/60/5 
f 56/60/5 57/61/5 24/26/5 
f 24/26/3 57/61/3 58/62/3 
f 58/62/3 25/27/3 24/26/3 
f 59/63/6 26/28/6 25/29/6 
f 25/29/6 58/64/6 59/63/6 
f 60/65/6 61/66/6 62/67/6 
f 62/67/6 63/68/6 60/65/6 
f 22/24/6 41/45/6 64/69/6 
f 64/69/6 54/58/6 22/24/6 
f 51/70/1 53/57/1 54/58/1 
f 54/58/1 52/71/1 51/70/1 
f 39/72/5 55/59/5 53/57/5 
f 53/57/5 51/70/5 39/72/5 
f 55/59/5 39/72/5 14/73/5 
f 14/73/5 56/60/5 55/59/5 
f 56/60/5 14/73/5 13/13/5 
f 13/13/5 57/61/5 56/60/5 
f 57/61/3 13/13/3 16/16/3 
f 16/16/3 58/62/3 57/61/3 
f 15/74/6 59/63/6 58/64/6 
f 58/64/6 16/75/6 15/74/6 
f 59/63/6 15/74/6 40/76/6 
f 40/76/6 64/69/6 59/63/6 
f 64/69/6 40/76/6 52/71/6 
f 52/71/6 54/58/6 64/69/6 
f 65/77/3 27/30/3 28/31/3 
f 28/31/3 66/78/3 65/77/3 
f 67/79/5 29/32/5 27/30/5 
f 27/30/5 65/77/5 67/79/5 
f 30/33/5 35/39/5 68/80/5 
f 68/80/5 69/81/5 30/33/5 
f 30/33/1 69/81/1 70/82/1 
f 70/82/1 31/34/1 30/33/1 
f 71/83/6 48/52/6 31/34/6 
f 31/34/6 70/82/6 71/83/6 
f 72/84/6 73/85/6 74/86/6 
f 74/86/6 75/87/6 72/84/6 
f 28/36/6 32/35/6 76/88/6 
f 76/88/6 66/89/6 28/36/6 
f 77/90/3 65/77/3 66/78/3 
f 66/78/3 78/91/3 77/90/3 
f 79/92/5 67/79/5 65/77/5 
f 65/77/5 77/90/5 79/92/5 
f 80/93/5 68/80/5 67/79/5 
f 67/79/5 79/92/5 80/93/5 
f 69/81/5 68/80/5 80/93/5 
f 80/93/5 81/94/5 69/81/5 
f 69/81/1 81/94/1 82/95/1 
f 82/95/1 70/82/1 69/81/1 
f 83/96/6 71/83/6 70/82/6 
f 70/82/6 82/95/6 83/96/6 
f 84/97/6 76/88/6 71/83/6 
f 71/83/6 83/96/6 84/97/6 
f 66/89/6 76/88/6 84/97/6 
f 84/97/6 78/98/6 66/89/6 
f 85/99/3 77/90/3 78/91/3 
f 78/91/3 86/100/3 85/99/3 
f 87/101/5 79/92/5 77/90/5 
f 77/90/5 85/99/5 87/101/5 
f 81/94/5 80/93/5 88/102/5 
f 88/102/5 89/103/5 81/94/5 
f 81/94/1 89/103/1 90/104/1 
f 90/104/1 82/95/1 81/94/1 
f 91/105/6 83/96/6 82/95/6 
f 82/95/6 90/104/6 91/105/6 
f 92/106/6 93/107/6 94/108/6 
f 94/108/6 95/109/6 92/106/6 
f 78/98/6 84/97/6 96/110/6 
f 96/110/6 86/111/6 78/98/6 
f 6/6/3 85/99/3 86/100/3 
f 86/100/3 7/7/3 6/6/3 
f 87/101/5 85/99/5 6/6/5 
f 6/6/5 5/112/5 87/101/5 
f 88/102/5 87/101/5 5/112/5 
f 5/112/5 33/113/5 88/102/5 
f 88/102/5 33/113/5 49/114/5 
f 49/114/5 89/103/5 88/102/5 
f 89/103/1 49/114/1 50/115/1 
f 50/115/1 90/104/1 89/103/1 
f 91/105/6 90/104/6 50/115/6 
f 50/115/6 34/116/6 91/105/6 
f 96/110/6 91/105/6 34/116/6 
f 34/116/6 8/117/6 96/110/6 
f 96/110/6 8/117/6 7/118/6 
f 7/118/6 86/111/6 96/110/6 
f 38/119/1 97/120/1 98/121/1 
f 98/121/1 36/122/1 38/119/1 
f 18/123/7 99/124/7 97/120/7 
f 97/120/7 38/119/7 18/123/7 
f 17/125/3 100/126/3 99/127/3 
f 99/127/3 18/128/3 17/125/3 
f 36/122/2 98/121/2 100/126/2 
f 100/126/2 17/125/2 36/122/2 
f 19/129/3 43/47/3 46/50/3 
f 46/50/3 20/130/3 19/129/3 
f 42/131/7 44/132/7 43/47/7 
f 43/47/7 19/129/7 42/131/7 
f 47/133/1 45/134/1 44/132/1 
f 44/132/1 42/131/1 47/133/1 
f 20/130/2 46/50/2 45/134/2 
f 45/134/2 47/133/2 20/130/2 
f 37/135/2 101/136/2 102/137/2 
f 102/137/2 23/138/2 37/135/2 
f 55/139/1 103/140/1 101/136/1 
f 101/136/1 37/135/1 55/139/1 
f 56/141/4 104/142/4 103/140/4 
f 103/140/4 55/139/4 56/141/4 
f 23/138/3 102/137/3 104/143/3 
f 104/143/3 56/144/3 23/138/3 
f 26/145/2 60/65/2 63/146/2 
f 63/146/2 41/147/2 26/145/2 
f 59/148/3 61/66/3 60/65/3 
f 60/65/3 26/145/3 59/148/3 
f 64/149/7 62/150/7 61/66/7 
f 61/66/7 59/148/7 64/149/7 
f 41/147/1 63/146/1 62/150/1 
f 62/150/1 64/149/1 41/147/1 
f 68/151/2 105/152/2 106/153/2 
f 106/153/2 67/154/2 68/151/2 
f 35/155/1 107/156/1 105/152/1 
f 105/152/1 68/151/1 35/155/1 
f 29/157/7 108/158/7 107/156/7 
f 107/156/7 35/155/7 29/157/7 
f 67/154/3 106/153/3 108/159/3 
f 108/159/3 29/160/3 67/154/3 
f 76/161/2 72/84/2 75/162/2 
f 75/162/2 71/163/2 76/161/2 
f 32/164/3 73/85/3 72/84/3 
f 72/84/3 76/161/3 32/164/3 
f 48/165/7 74/166/7 73/85/7 
f 73/85/7 32/164/7 48/165/7 
f 71/163/1 75/162/1 74/166/1 
f 74/166/1 48/165/1 71/163/1 
f 88/167/2 109/168/2 110/169/2 
f 110/169/2 87/170/2 88/167/2 
f 80/171/1 111/172/1 109/168/1 
f 109/168/1 88/167/1 80/171/1 
f 79/173/4 112/174/4 111/172/4 
f 111/172/4 80/171/4 79/173/4 
f 87/170/3 110/169/3 112/175/3 
f 112/175/3 79/176/3 87/170/3 
f 96/177/2 92/106/2 95/178/2 
f 95/178/2 91/179/2 96/177/2 
f 84/180/3 93/107/3 92/106/3 
f 92/106/3 96/177/3 84/180/3 
f 83/181/7 94/182/7 93/107/7 
f 93/107/7 84/180/7 83/181/7 
f 91/179/1 95/178/1 94/182/1 
f 94/182/1 83/181/1 91/179/1 
f 113/3/1 114/2/1 115/1/1 
f 115/1/1 116/4/1 113/3/1 
f 117/7/2 118/6/2 119/5/2 
f 119/5/2 120/8/2 117/7/2 
f 121/11/3 122/10/3 123/9/3 
f 123/9/3 124/12/3 121/11/3 
f 125/15/4 126/14/4 127/13/4 
f 127/13/4 128/16/4 125/15/4 
f 129/17/6 123/9/6 122/10/6 
f 122/10/6 130/18/6 129/17/6 
f 121/19/5 124/22/5 131/21/5 
f 131/21/5 132/20/5 121/19/5 
f 116/4/1 115/1/1 133/23/1 
f 133/23/1 134/24/1 116/4/1 
f 122/10/6 135/26/6 136/25/6 
f 136/25/6 130/18/6 122/10/6 
f 137/27/3 135/26/3 122/10/3 
f 122/10/3 121/11/3 137/27/3 
f 121/19/5 132/20/5 138/28/5 
f 138/28/5 137/29/5 121/19/5 
f 124/12/3 123/9/3 139/30/3 
f 139/30/3 140/31/3 124/12/3 
f 123/9/6 129/17/6 141/32/6 
f 141/32/6 139/30/6 123/9/6 
f 142/34/1 143/33/1 114/2/1 
f 114/2/1 113/3/1 142/34/1 
f 140/36/5 144/35/5 131/21/5 
f 131/21/5 124/22/5 140/36/5 
f 120/8/2 119/5/2 145/37/2 
f 145/37/2 146/38/2 120/8/2 
f 129/17/6 147/40/6 148/39/6 
f 148/39/6 141/32/6 129/17/6 
f 130/18/6 136/25/6 149/41/6 
f 149/41/6 150/42/6 130/18/6 
f 151/44/4 152/43/4 126/14/4 
f 126/14/4 125/15/4 151/44/4 
f 153/46/5 154/45/5 138/28/5 
f 138/28/5 132/20/5 153/46/5 
f 155/49/5 156/48/5 157/47/5 
f 157/47/5 158/50/5 155/49/5 
f 159/51/5 131/21/5 144/35/5 
f 144/35/5 160/52/5 159/51/5 
f 146/38/2 145/37/2 161/53/2 
f 161/53/2 162/54/2 146/38/2 
f 143/33/6 148/39/6 147/40/6 
f 147/40/6 114/2/6 143/33/6 
f 115/1/6 114/2/6 147/40/6 
f 147/40/6 150/42/6 115/1/6 
f 115/1/6 150/42/6 149/41/6 
f 149/41/6 133/23/6 115/1/6 
f 163/56/4 164/55/4 152/43/4 
f 152/43/4 151/44/4 163/56/4 
f 116/4/5 134/24/5 154/45/5 
f 154/45/5 153/46/5 116/4/5 
f 159/51/5 113/3/5 116/4/5 
f 116/4/5 153/46/5 159/51/5 
f 113/3/5 159/51/5 160/52/5 
f 160/52/5 142/34/5 113/3/5 
f 134/24/1 133/23/1 165/57/1 
f 165/57/1 166/58/1 134/24/1 
f 133/23/6 149/41/6 167/59/6 
f 167/59/6 165/57/6 133/23/6 
f 135/26/6 168/61/6 169/60/6 
f 169/60/6 136/25/6 135/26/6 
f 170/62/3 168/61/3 135/26/3 
f 135/26/3 137/27/3 170/62/3 
f 137/29/5 138/28/5 171/63/5 
f 171/63/5 170/64/5 137/29/5 
f 172/67/5 173/66/5 174/65/5 
f 174/65/5 175/68/5 172/67/5 
f 134/24/5 166/58/5 176/69/5 
f 176/69/5 154/45/5 134/24/5 
f 166/58/1 165/57/1 164/70/1 
f 164/70/1 163/71/1 166/58/1 
f 165/57/6 167/59/6 152/72/6 
f 152/72/6 164/70/6 165/57/6 
f 126/73/6 152/72/6 167/59/6 
f 167/59/6 169/60/6 126/73/6 
f 127/13/6 126/73/6 169/60/6 
f 169/60/6 168/61/6 127/13/6 
f 128/16/3 127/13/3 168/61/3 
f 168/61/3 170/62/3 128/16/3 
f 170/64/5 171/63/5 125/74/5 
f 125/74/5 128/75/5 170/64/5 
f 151/76/5 125/74/5 171/63/5 
f 171/63/5 176/69/5 151/76/5 
f 163/71/5 151/76/5 176/69/5 
f 176/69/5 166/58/5 163/71/5 
f 140/31/3 139/30/3 177/77/3 
f 177/77/3 178/78/3 140/31/3 
f 139/30/6 141/32/6 179/79/6 
f 179/79/6 177/77/6 139/30/6 
f 143/33/6 180/81/6 181/80/6 
f 181/80/6 148/39/6 143/33/6 
f 182/82/1 180/81/1 143/33/1 
f 143/33/1 142/34/1 182/82/1 
f 142/34/5 160/52/5 183/83/5 
f 183/83/5 182/82/5 142/34/5 
f 184/86/5 185/85/5 186/84/5 
f 186/84/5 187/87/5 184/86/5 
f 140/36/5 178/89/5 188/88/5 
f 188/88/5 144/35/5 140/36/5 
f 178/78/3 177/77/3 189/90/3 
f 189/90/3 190/91/3 178/78/3 
f 177/77/6 179/79/6 191/92/6 
f 191/92/6 189/90/6 177/77/6 
f 179/79/6 181/80/6 192/93/6 
f 192/93/6 191/92/6 179/79/6 
f 180/81/6 193/94/6 192/93/6 
f 192/93/6 181/80/6 180/81/6 
f 194/95/1 193/94/1 180/81/1 
f 180/81/1 182/82/1 194/95/1 
f 182/82/5 183/83/5 195/96/5 
f 195/96/5 194/95/5 182/82/5 
f 183/83/5 188/88/5 196/97/5 
f 196/97/5 195/96/5 183/83/5 
f 178/89/5 190/98/5 196/97/5 
f 196/97/5 188/88/5 178/89/5 
f 190/91/3 189/90/3 197/99/3 
f 197/99/3 198/100/3 190/91/3 
f 189/90/6 191/92/6 199/101/6 
f 199/101/6 197/99/6 189/90/6 
f 193/94/6 200/103/6 201/102/6 
f 201/102/6 192/93/6 193/94/6 
f 202/104/1 200/103/1 193/94/1 
f 193/94/1 194/95/1 202/104/1 
f 194/95/5 195/96/5 203/105/5 
f 203/105/5 202/104/5 194/95/5 
f 204/108/5 205/107/5 206/106/5 
f 206/106/5 207/109/5 204/108/5 
f 190/98/5 198/111/5 208/110/5 
f 208/110/5 196/97/5 190/98/5 
f 198/100/3 197/99/3 118/6/3 
f 118/6/3 117/7/3 198/100/3 
f 118/6/6 197/99/6 199/101/6 
f 199/101/6 119/112/6 118/6/6 
f 119/112/6 199/101/6 201/102/6 
f 201/102/6 145/113/6 119/112/6 
f 161/114/6 145/113/6 201/102/6 
f 201/102/6 200/103/6 161/114/6 
f 162/115/1 161/114/1 200/103/1 
f 200/103/1 202/104/1 162/115/1 
f 162/115/5 202/104/5 203/105/5 
f 203/105/5 146/116/5 162/115/5 
f 146/116/5 203/105/5 208/110/5 
f 208/110/5 120/117/5 146/116/5 
f 117/118/5 120/117/5 208/110/5 
f 208/110/5 198/111/5 117/118/5 
f 98/121/1 97/120/1 150/119/1 
f 150/119/1 147/122/1 98/121/1 
f 97/120/7 99/124/7 130/123/7 
f 130/123/7 150/119/7 97/120/7 
f 99/127/3 100/126/3 129/125/3 
f 129/125/3 130/128/3 99/127/3 
f 100/126/2 98/121/2 147/122/2 
f 147/122/2 129/125/2 100/126/2 
f 158/50/3 157/47/3 132/129/3 
f 132/129/3 131/130/3 158/50/3 
f 157/47/7 156/132/7 153/131/7 
f 153/131/7 132/129/7 157/47/7 
f 156/132/1 155/134/1 159/133/1 
f 159/133/1 153/131/1 156/132/1 
f 155/134/2 158/50/2 131/130/2 
f 131/130/2 159/133/2 155/134/2 
f 102/137/2 101/136/2 149/135/2 
f 149/135/2 136/138/2 102/137/2 
f 101/136/1 103/140/1 167/139/1 
f 167/139/1 149/135/1 101/136/1 
f 103/140/4 104/142/4 169/141/4 
f 169/141/4 167/139/4 103/140/4 
f 104/143/3 102/137/3 136/138/3 
f 136/138/3 169/144/3 104/143/3 
f 175/146/2 174/65/2 138/145/2 
f 138/145/2 154/147/2 175/146/2 
f 174/65/3 173/66/3 171/148/3 
f 171/148/3 138/145/3 174/65/3 
f 173/66/7 172/150/7 176/149/7 
f 176/149/7 171/148/7 173/66/7 
f 172/150/1 175/146/1 154/147/1 
f 154/147/1 176/149/1 172/150/1 
f 106/153/2 105/152/2 181/151/2 
f 181/151/2 179/154/2 106/153/2 
f 105/152/1 107/156/1 148/155/1 
f 148/155/1 181/151/1 105/152/1 
f 107/156/7 108/158/7 141/157/7 
f 141/157/7 148/155/7 107/156/7 
f 108/159/3 106/153/3 179/154/3 
f 179/154/3 141/160/3 108/159/3 
f 187/162/2 186/84/2 188/161/2 
f 188/161/2 183/163/2 187/162/2 
f 186/84/3 185/85/3 144/164/3 
f 144/164/3 188/161/3 186/84/3 
f 185/85/7 184/166/7 160/165/7 
f 160/165/7 144/164/7 185/85/7 
f 184/166/1 187/162/1 183/163/1 
f 183/163/1 160/165/1 184/166/1 
f 110/169/2 109/168/2 201/167/2 
f 201/167/2 199/170/2 110/169/2 
f 109/168/1 111/172/1 192/171/1 
f 192/171/1 201/167/1 109/168/1 
f 111/172/4 112/174/4 191/173/4 
f 191/173/4 192/171/4 111/172/4 
f 112/175/3 110/169/3 199/170/3 
f 199/170/3 191/176/3 112/175/3 
f 207/178/2 206/106/2 208/177/2 
f 208/177/2 203/179/2 207/178/2 
f 206/106/3 205/107/3 196/180/3 
f 196/180/3 208/177/3 206/106/3 
f 205/107/7 204/182/7 195/181/7 
f 195/181/7 196/180/7 205/107/7 
f 204/182/1 207/178/1 203/179/1 
f 203/179/1 195/181/1 204/182/1 
# 424 faces

