# 3ds Max Wavefront OBJ Exporter v0.97b - (c)2007 guruware
# File Created: 08.11.2017 17:17:36

mtllib DS_Stone.mtl

#
# object default
#

v  0.1107 -0.3321 1.5334
v  1.8858 -0.3321 1.1855
v  1.6435 0.2768 1.0293
v  0.1107 0.2768 1.3397
v  0.1107 -0.3321 -1.6026
v  0.1107 0.2768 -1.4504
v  1.6435 0.2768 -1.2204
v  1.8858 -0.3321 -1.3432
v  2.0382 0.2768 -0.2353
v  2.3387 -0.3321 -0.2353
v  -2.2429 -0.3321 -1.3432
v  -2.7816 -0.3321 -0.2353
v  -2.3842 0.2768 -0.2353
v  -1.9225 0.2768 -1.2204
v  0.1107 -1.6607 1.7272
v  2.2323 -1.6607 1.3417
v  2.7685 -1.6607 -0.2353
v  2.2323 -1.6607 -1.6221
v  0.1107 -1.6607 -1.9486
v  -2.9622 -1.6607 -0.2353
v  -2.3885 -1.6607 -1.6221
v  0.1107 -2.8231 1.8021
v  2.5342 -2.8231 1.4022
v  3.1428 -2.8231 -0.2353
v  2.5342 -2.8231 -1.9280
v  0.1107 -2.8231 -2.3280
v  -3.1428 -2.8231 -0.2353
v  -2.5342 -2.8231 -1.9280
v  0.1107 0.8303 -1.0352
v  1.2490 0.8303 -0.8856
v  1.4386 1.2378 -0.2353
v  1.2490 1.1763 0.6164
v  0.1107 1.1763 0.8276
v  -1.1065 1.2378 -0.2353
v  -0.9812 0.8303 -0.8856
v  0.1107 1.8129 -0.4817
v  0.5683 1.8129 -0.4393
v  0.7048 1.8129 -0.2353
v  0.5683 1.8129 0.1924
v  0.1107 1.8129 0.3017
v  -0.5111 1.8129 -0.2353
v  -0.4121 1.8129 -0.4393
v  0.0298 1.9819 -0.1625
v  -0.4121 1.8129 0.1924
v  -0.9812 1.1763 0.6164
v  -1.9225 0.2768 1.0293
v  -2.2429 -0.3321 1.1855
v  -2.3885 -1.6607 1.3417
v  -2.5342 -2.8231 1.4022
v  0.1107 -4.2088 2.1515
v  -2.6215 -4.2088 1.5426
v  2.6215 -4.2088 1.5426
v  3.5745 -4.2088 -0.2353
v  2.6215 -4.2088 -2.0685
v  0.1107 -4.2088 -2.6773
v  -2.6215 -4.2088 -2.0685
v  -3.5745 -4.2088 -0.2353
v  1.6435 -8.6943 1.0293
v  1.8858 -8.0854 1.1855
v  0.1107 -8.0854 1.5334
v  0.1107 -8.6943 1.3397
v  0.1107 -8.0854 -1.6026
v  1.8858 -8.0854 -1.3432
v  1.6435 -8.6943 -1.2204
v  0.1107 -8.6943 -1.4504
v  2.0382 -8.6943 -0.2353
v  2.3387 -8.0854 -0.2353
v  -2.2429 -8.0854 -1.3432
v  -1.9225 -8.6943 -1.2204
v  -2.3842 -8.6943 -0.2353
v  -2.7816 -8.0854 -0.2353
v  2.2323 -6.7568 1.3417
v  0.1107 -6.7568 1.7272
v  2.2323 -6.7568 -1.6221
v  2.7685 -6.7568 -0.2353
v  0.1107 -6.7568 -1.9486
v  -2.9622 -6.7568 -0.2353
v  -2.3885 -6.7568 -1.6221
v  2.5342 -5.5944 1.4022
v  0.1107 -5.5944 1.8021
v  2.5342 -5.5944 -1.9280
v  3.1428 -5.5944 -0.2353
v  0.1107 -5.5944 -2.3280
v  -3.1428 -5.5944 -0.2353
v  -2.5342 -5.5944 -1.9280
v  1.2490 -9.2479 -0.8856
v  0.1107 -9.2478 -1.0352
v  1.4386 -9.6553 -0.2353
v  1.2490 -9.5938 0.6164
v  0.1107 -9.5938 0.8276
v  -0.9812 -9.2478 -0.8856
v  -1.1065 -9.6553 -0.2353
v  0.5683 -10.2304 -0.4393
v  0.1107 -10.2304 -0.4817
v  0.7048 -10.2304 -0.2353
v  0.5683 -10.2304 0.1924
v  0.1107 -10.2304 0.3017
v  -0.4121 -10.2304 -0.4393
v  -0.5111 -10.2304 -0.2353
v  0.0298 -10.3994 -0.1625
v  -0.4121 -10.2304 0.1924
v  -0.9812 -9.5938 0.6164
v  -1.9225 -8.6943 1.0293
v  -2.2429 -8.0854 1.1855
v  -2.3885 -6.7568 1.3417
v  -2.5342 -5.5944 1.4022
# 106 vertices

vn 0.1859 0.3054 0.9339
vn 0.1419 0.2448 -0.9591
vn 0.8449 0.4111 -0.3422
vn -0.7821 0.4986 -0.3738
vn 0.1828 0.1518 0.9714
vn 0.8878 0.2963 -0.3520
vn 0.1442 0.2443 -0.9589
vn -0.9026 0.1531 -0.4024
vn 0.1697 0.0792 0.9823
vn 0.8931 0.3035 -0.3320
vn 0.1507 0.2975 -0.9428
vn -0.9191 0.1754 -0.3529
vn 0.1141 0.5847 -0.8032
vn 0.7237 0.5632 -0.3989
vn 0.1682 0.4796 0.8612
vn -0.4846 0.7920 -0.3713
vn 0.1048 0.4796 -0.8712
vn 0.5522 0.6508 -0.5211
vn 0.1510 0.6417 0.7519
vn -0.6425 0.6123 -0.4607
vn 0.1316 0.9391 -0.3174
vn 0.1752 0.9653 0.1938
vn -0.1375 0.9277 -0.3470
vn -0.1339 0.2879 -0.9483
vn -0.1166 0.2334 -0.9654
vn -0.1075 0.2458 -0.9633
vn -0.0953 0.6125 -0.7847
vn -0.1039 0.4748 -0.8740
vn -0.1507 0.6335 0.7589
vn -0.1416 0.5102 0.8483
vn -0.1412 0.3076 0.9410
vn -0.1480 0.1371 0.9794
vn -0.1506 0.0669 0.9863
vn -0.1815 0.1767 0.9674
vn 0.1972 0.1767 0.9643
vn 0.8980 0.1883 -0.3977
vn 0.1972 0.1767 -0.9643
vn -0.1815 0.1767 -0.9674
vn -0.8980 0.1883 -0.3977
vn 0.6048 0.7730 0.1913
vn 0.8317 0.4986 0.2442
vn 0.8651 0.4206 0.2731
vn 0.9106 0.2837 0.3005
vn 0.9065 0.2721 0.3229
vn 0.8932 0.1880 0.4084
vn -0.8932 0.1880 0.4084
vn -0.9294 0.1393 0.3419
vn -0.9290 0.1343 0.3447
vn -0.8046 0.5127 0.2998
vn -0.6095 0.7694 0.1914
vn -0.6849 0.7122 0.1543
vn -0.1897 0.9570 0.2196
vn 0.1859 -0.3054 0.9339
vn 0.1419 -0.2448 -0.9591
vn 0.8449 -0.4111 -0.3422
vn -0.7821 -0.4986 -0.3738
vn 0.1828 -0.1518 0.9714
vn 0.8878 -0.2963 -0.3520
vn 0.1442 -0.2443 -0.9589
vn -0.9026 -0.1531 -0.4024
vn 0.1697 -0.0792 0.9823
vn 0.8931 -0.3035 -0.3320
vn 0.1507 -0.2975 -0.9428
vn -0.9191 -0.1754 -0.3529
vn 0.1141 -0.5847 -0.8032
vn 0.7237 -0.5632 -0.3989
vn 0.1682 -0.4796 0.8612
vn -0.4846 -0.7920 -0.3713
vn 0.1048 -0.4796 -0.8712
vn 0.5522 -0.6508 -0.5211
vn 0.1510 -0.6417 0.7519
vn -0.6425 -0.6123 -0.4607
vn 0.1316 -0.9391 -0.3174
vn 0.1752 -0.9653 0.1938
vn -0.1375 -0.9277 -0.3470
vn -0.1339 -0.2879 -0.9483
vn -0.1166 -0.2334 -0.9654
vn -0.1075 -0.2458 -0.9633
vn -0.0953 -0.6125 -0.7847
vn -0.1039 -0.4748 -0.8740
vn -0.1507 -0.6335 0.7589
vn -0.1416 -0.5102 0.8483
vn -0.1412 -0.3076 0.9410
vn -0.1480 -0.1371 0.9794
vn -0.1506 -0.0669 0.9863
vn -0.1815 -0.1767 0.9674
vn 0.1972 -0.1767 0.9643
vn 0.8980 -0.1883 -0.3977
vn 0.1972 -0.1767 -0.9643
vn -0.1815 -0.1767 -0.9674
vn -0.8980 -0.1883 -0.3977
vn 0.6048 -0.7730 0.1913
vn 0.8317 -0.4986 0.2442
vn 0.8651 -0.4206 0.2731
vn 0.9106 -0.2837 0.3005
vn 0.9065 -0.2721 0.3229
vn 0.8932 -0.1880 0.4084
vn -0.8932 -0.1880 0.4084
vn -0.9294 -0.1393 0.3419
vn -0.9290 -0.1343 0.3447
vn -0.8046 -0.5127 0.2998
vn -0.6095 -0.7694 0.1914
vn -0.6849 -0.7122 0.1543
vn -0.1897 -0.9570 0.2196
# 104 vertex normals

vt 0.3287 0.3990 0.0000
vt 0.4367 0.3877 0.0000
vt 0.4318 0.4308 0.0000
vt 0.3395 0.4411 0.0000
vt 0.6986 0.7522 0.0000
vt 0.7011 0.7931 0.0000
vt 0.6039 0.7779 0.0000
vt 0.5976 0.7365 0.0000
vt 0.5324 0.7933 0.0000
vt 0.5203 0.7423 0.0000
vt 0.8800 0.7467 0.0000
vt 0.9615 0.7609 0.0000
vt 0.9316 0.8232 0.0000
vt 0.8568 0.7889 0.0000
vt 0.3189 0.3183 0.0000
vt 0.4391 0.3036 0.0000
vt 0.5138 0.6490 0.0000
vt 0.6002 0.6541 0.0000
vt 0.7124 0.6715 0.0000
vt 0.9625 0.6560 0.0000
vt 0.8656 0.6616 0.0000
vt 0.3144 0.2558 0.0000
vt 0.4381 0.2381 0.0000
vt 0.5201 0.5748 0.0000
vt 0.6084 0.5934 0.0000
vt 0.7182 0.6108 0.0000
vt 0.9477 0.5765 0.0000
vt 0.8513 0.5982 0.0000
vt 0.7001 0.8408 0.0000
vt 0.6149 0.8291 0.0000
vt 0.5746 0.8778 0.0000
vt 0.4208 0.5060 0.0000
vt 0.3343 0.5152 0.0000
vt 0.8168 0.9111 0.0000
vt 0.7912 0.8487 0.0000
vt 0.6907 0.9303 0.0000
vt 0.6519 0.9250 0.0000
vt 0.6331 0.9346 0.0000
vt 0.3822 0.5814 0.0000
vt 0.3389 0.5836 0.0000
vt 0.7497 0.9522 0.0000
vt 0.7360 0.9368 0.0000
vt 0.6930 0.9643 0.0000
vt 0.3376 0.6356 0.0000
vt 0.4149 0.6093 0.0000
vt 0.2884 0.5940 0.0000
vt 0.2348 0.5249 0.0000
vt 0.1599 0.4372 0.0000
vt 0.1540 0.3939 0.0000
vt 0.1620 0.3091 0.0000
vt 0.1695 0.2419 0.0000
vt 0.3114 0.1839 0.0000
vt 0.1845 0.1828 0.0000
vt 0.4238 0.1817 0.0000
vt 0.5452 0.4908 0.0000
vt 0.6212 0.5434 0.0000
vt 0.7219 0.5459 0.0000
vt 0.8375 0.5451 0.0000
vt 0.9169 0.4877 0.0000
vt 0.4809 0.5441 0.0000
vt 0.5249 0.4536 0.0000
vt 0.5375 0.3989 0.0000
vt 0.5435 0.2976 0.0000
vt 0.5344 0.2161 0.0000
vt 0.5063 0.1239 0.0000
vt 0.0661 0.2169 0.0000
vt 0.0994 0.1207 0.0000
vt 0.0490 0.3011 0.0000
vt 0.0470 0.4100 0.0000
vt 0.0690 0.4764 0.0000
vt 0.1826 0.5859 0.0000
vt 0.2645 0.6335 0.0000
# 72 texture coords

g default
usemtl _DS_Stonelambert2SG
f 1/1/1 2/2/1 3/3/1 
f 3/3/1 4/4/1 1/1/1 
f 5/5/2 6/6/2 7/7/2 
f 7/7/2 8/8/2 5/5/2 
f 9/9/3 10/10/3 8/8/3 
f 8/8/3 7/7/3 9/9/3 
f 11/11/4 12/12/4 13/13/4 
f 13/13/4 14/14/4 11/11/4 
f 15/15/5 16/16/5 2/2/5 
f 2/2/5 1/1/5 15/15/5 
f 10/10/6 17/17/6 18/18/6 
f 18/18/6 8/8/6 10/10/6 
f 19/19/7 5/5/7 8/8/7 
f 8/8/7 18/18/7 19/19/7 
f 20/20/8 12/12/8 11/11/8 
f 11/11/8 21/21/8 20/20/8 
f 22/22/9 23/23/9 16/16/9 
f 16/16/9 15/15/9 22/22/9 
f 24/24/10 25/25/10 18/18/10 
f 18/18/10 17/17/10 24/24/10 
f 26/26/11 19/19/11 18/18/11 
f 18/18/11 25/25/11 26/26/11 
f 27/27/12 20/20/12 21/21/12 
f 21/21/12 28/28/12 27/27/12 
f 6/6/13 29/29/13 30/30/13 
f 30/30/13 7/7/13 6/6/13 
f 9/9/14 7/7/14 30/30/14 
f 30/30/14 31/31/14 9/9/14 
f 4/4/15 3/3/15 32/32/15 
f 32/32/15 33/33/15 4/4/15 
f 14/14/16 13/13/16 34/34/16 
f 34/34/16 35/35/16 14/14/16 
f 29/29/17 36/36/17 37/37/17 
f 37/37/17 30/30/17 29/29/17 
f 31/31/18 30/30/18 37/37/18 
f 37/37/18 38/38/18 31/31/18 
f 33/33/19 32/32/19 39/39/19 
f 39/39/19 40/40/19 33/33/19 
f 34/34/20 41/41/20 42/42/20 
f 42/42/20 35/35/20 34/34/20 
f 37/37/21 36/36/21 43/43/21 
f 43/43/21 38/38/21 37/37/21 
f 43/44/22 40/40/22 39/39/22 
f 39/39/22 38/45/22 43/44/22 
f 42/42/23 41/41/23 43/43/23 
f 43/43/23 36/36/23 42/42/23 
f 21/21/24 19/19/24 26/26/24 
f 26/26/24 28/28/24 21/21/24 
f 11/11/25 5/5/25 19/19/25 
f 19/19/25 21/21/25 11/11/25 
f 14/14/26 6/6/26 5/5/26 
f 5/5/26 11/11/26 14/14/26 
f 35/35/27 29/29/27 6/6/27 
f 6/6/27 14/14/27 35/35/27 
f 42/42/28 36/36/28 29/29/28 
f 29/29/28 35/35/28 42/42/28 
f 33/33/29 40/40/29 44/46/29 
f 44/46/29 45/47/29 33/33/29 
f 4/4/30 33/33/30 45/47/30 
f 45/47/30 46/48/30 4/4/30 
f 1/1/31 4/4/31 46/48/31 
f 46/48/31 47/49/31 1/1/31 
f 15/15/32 1/1/32 47/49/32 
f 47/49/32 48/50/32 15/15/32 
f 22/22/33 15/15/33 48/50/33 
f 48/50/33 49/51/33 22/22/33 
f 50/52/34 22/22/34 49/51/34 
f 49/51/34 51/53/34 50/52/34 
f 22/22/35 50/52/35 52/54/35 
f 52/54/35 23/23/35 22/22/35 
f 24/24/36 53/55/36 54/56/36 
f 54/56/36 25/25/36 24/24/36 
f 26/26/37 25/25/37 54/56/37 
f 54/56/37 55/57/37 26/26/37 
f 26/26/38 55/57/38 56/58/38 
f 56/58/38 28/28/38 26/26/38 
f 56/58/39 57/59/39 27/27/39 
f 27/27/39 28/28/39 56/58/39 
f 31/60/40 38/45/40 39/39/40 
f 39/39/40 32/32/40 31/60/40 
f 9/61/41 31/60/41 32/32/41 
f 32/32/41 3/3/41 9/61/41 
f 2/2/42 10/62/42 9/61/42 
f 9/61/42 3/3/42 2/2/42 
f 16/16/43 17/63/43 10/62/43 
f 10/62/43 2/2/43 16/16/43 
f 23/23/44 24/64/44 17/63/44 
f 17/63/44 16/16/44 23/23/44 
f 52/54/45 53/65/45 24/64/45 
f 24/64/45 23/23/45 52/54/45 
f 27/66/46 57/67/46 51/53/46 
f 51/53/46 49/51/46 27/66/46 
f 20/68/47 27/66/47 49/51/47 
f 49/51/47 48/50/47 20/68/47 
f 20/68/48 48/50/48 47/49/48 
f 47/49/48 12/69/48 20/68/48 
f 13/70/49 12/69/49 47/49/49 
f 47/49/49 46/48/49 13/70/49 
f 34/71/50 13/70/50 46/48/50 
f 46/48/50 45/47/50 34/71/50 
f 34/71/51 45/47/51 44/46/51 
f 44/46/51 41/72/51 34/71/51 
f 43/44/52 41/72/52 44/46/52 
f 44/46/52 40/40/52 43/44/52 
f 58/3/53 59/2/53 60/1/53 
f 60/1/53 61/4/53 58/3/53 
f 62/5/54 63/8/54 64/7/54 
f 64/7/54 65/6/54 62/5/54 
f 66/9/55 64/7/55 63/8/55 
f 63/8/55 67/10/55 66/9/55 
f 68/11/56 69/14/56 70/13/56 
f 70/13/56 71/12/56 68/11/56 
f 59/2/57 72/16/57 73/15/57 
f 73/15/57 60/1/57 59/2/57 
f 67/10/58 63/8/58 74/18/58 
f 74/18/58 75/17/58 67/10/58 
f 76/19/59 74/18/59 63/8/59 
f 63/8/59 62/5/59 76/19/59 
f 68/11/60 71/12/60 77/20/60 
f 77/20/60 78/21/60 68/11/60 
f 72/16/61 79/23/61 80/22/61 
f 80/22/61 73/15/61 72/16/61 
f 74/18/62 81/25/62 82/24/62 
f 82/24/62 75/17/62 74/18/62 
f 74/18/63 76/19/63 83/26/63 
f 83/26/63 81/25/63 74/18/63 
f 78/21/64 77/20/64 84/27/64 
f 84/27/64 85/28/64 78/21/64 
f 65/6/65 64/7/65 86/30/65 
f 86/30/65 87/29/65 65/6/65 
f 86/30/66 64/7/66 66/9/66 
f 66/9/66 88/31/66 86/30/66 
f 89/32/67 58/3/67 61/4/67 
f 61/4/67 90/33/67 89/32/67 
f 69/14/68 91/35/68 92/34/68 
f 92/34/68 70/13/68 69/14/68 
f 87/29/69 86/30/69 93/37/69 
f 93/37/69 94/36/69 87/29/69 
f 93/37/70 86/30/70 88/31/70 
f 88/31/70 95/38/70 93/37/70 
f 96/39/71 89/32/71 90/33/71 
f 90/33/71 97/40/71 96/39/71 
f 98/42/72 99/41/72 92/34/72 
f 92/34/72 91/35/72 98/42/72 
f 93/37/73 95/38/73 100/43/73 
f 100/43/73 94/36/73 93/37/73 
f 100/44/74 95/45/74 96/39/74 
f 96/39/74 97/40/74 100/44/74 
f 98/42/75 94/36/75 100/43/75 
f 100/43/75 99/41/75 98/42/75 
f 78/21/76 85/28/76 83/26/76 
f 83/26/76 76/19/76 78/21/76 
f 68/11/77 78/21/77 76/19/77 
f 76/19/77 62/5/77 68/11/77 
f 69/14/78 68/11/78 62/5/78 
f 62/5/78 65/6/78 69/14/78 
f 91/35/79 69/14/79 65/6/79 
f 65/6/79 87/29/79 91/35/79 
f 98/42/80 91/35/80 87/29/80 
f 87/29/80 94/36/80 98/42/80 
f 101/46/81 97/40/81 90/33/81 
f 90/33/81 102/47/81 101/46/81 
f 102/47/82 90/33/82 61/4/82 
f 61/4/82 103/48/82 102/47/82 
f 103/48/83 61/4/83 60/1/83 
f 60/1/83 104/49/83 103/48/83 
f 104/49/84 60/1/84 73/15/84 
f 73/15/84 105/50/84 104/49/84 
f 105/50/85 73/15/85 80/22/85 
f 80/22/85 106/51/85 105/50/85 
f 106/51/86 80/22/86 50/52/86 
f 50/52/86 51/53/86 106/51/86 
f 52/54/87 50/52/87 80/22/87 
f 80/22/87 79/23/87 52/54/87 
f 82/24/88 81/25/88 54/56/88 
f 54/56/88 53/55/88 82/24/88 
f 54/56/89 81/25/89 83/26/89 
f 83/26/89 55/57/89 54/56/89 
f 56/58/90 55/57/90 83/26/90 
f 83/26/90 85/28/90 56/58/90 
f 56/58/91 85/28/91 84/27/91 
f 84/27/91 57/59/91 56/58/91 
f 96/39/92 95/45/92 88/60/92 
f 88/60/92 89/32/92 96/39/92 
f 89/32/93 88/60/93 66/61/93 
f 66/61/93 58/3/93 89/32/93 
f 59/2/94 58/3/94 66/61/94 
f 66/61/94 67/62/94 59/2/94 
f 72/16/95 59/2/95 67/62/95 
f 67/62/95 75/63/95 72/16/95 
f 79/23/96 72/16/96 75/63/96 
f 75/63/96 82/64/96 79/23/96 
f 52/54/97 79/23/97 82/64/97 
f 82/64/97 53/65/97 52/54/97 
f 84/66/98 106/51/98 51/53/98 
f 51/53/98 57/67/98 84/66/98 
f 77/68/99 105/50/99 106/51/99 
f 106/51/99 84/66/99 77/68/99 
f 104/49/100 105/50/100 77/68/100 
f 77/68/100 71/69/100 104/49/100 
f 70/70/101 103/48/101 104/49/101 
f 104/49/101 71/69/101 70/70/101 
f 92/71/102 102/47/102 103/48/102 
f 103/48/102 70/70/102 92/71/102 
f 101/46/103 102/47/103 92/71/103 
f 92/71/103 99/72/103 101/46/103 
f 100/44/104 97/40/104 101/46/104 
f 101/46/104 99/72/104 100/44/104 
# 208 faces

