# 3ds Max Wavefront OBJ Exporter v0.97b - (c)2007 guruware
# File Created: 13.05.2017 05:02:00

mtllib DS_Greatsword.mtl

#
# object default
#

v  0.0000 -0.9249 -0.0785
v  0.0000 0.9243 -0.0932
v  0.0684 0.9243 -0.0659
v  0.0570 -0.9250 -0.0555
v  0.0570 -0.9250 0.0555
v  0.0684 0.9243 0.0659
v  0.0000 0.9243 0.0932
v  0.0000 -0.9249 0.0785
v  0.0806 -0.9249 -0.0000
v  0.0968 0.9243 -0.0000
v  0.0000 -1.2335 -0.1347
v  0.0000 -1.0248 -0.1347
v  0.1824 -1.0248 -0.1334
v  0.1814 -1.2335 -0.1334
v  0.1814 -1.2335 0.1334
v  0.1824 -1.0248 0.1334
v  0.0000 -1.0248 0.1347
v  0.0000 -1.2335 0.1347
v  0.1818 -1.2335 -0.0000
v  0.1828 -1.0248 -0.0000
v  0.0916 -1.3220 -0.0870
v  0.0000 -1.3220 -0.0879
v  0.0916 -1.3220 0.0870
v  0.0000 -1.3220 0.0879
v  0.0918 -1.3220 -0.0000
v  0.0803 -0.9247 -0.0777
v  0.0803 -0.9247 0.0777
v  0.0000 0.9243 -0.1611
v  0.4967 0.9243 -0.1603
v  0.4967 0.9243 0.1603
v  0.0000 0.9243 0.1611
v  0.4954 0.9243 -0.0000
v  0.0000 1.3227 -0.1611
v  0.0000 1.4356 -0.1611
v  0.4967 1.4356 -0.1603
v  0.5576 1.3227 -0.1603
v  0.0000 1.3227 0.1611
v  0.5576 1.3227 0.1603
v  0.4967 1.4356 0.1603
v  0.0000 1.4356 0.1611
v  0.5560 1.3227 -0.0000
v  0.4954 1.4356 -0.0000
v  0.0000 1.0320 -0.1611
v  0.5576 1.0320 -0.1603
v  0.5576 1.0320 0.1603
v  0.0000 1.0320 0.1611
v  0.5560 1.0320 -0.0000
v  0.0000 1.4329 -0.0928
v  0.3003 1.4329 -0.0942
v  0.3003 1.4329 0.0942
v  0.0000 1.4329 0.0928
v  0.4890 1.4329 -0.0000
v  0.0000 4.6314 -0.0928
v  0.2825 4.6314 -0.0942
v  0.2825 4.6314 0.0942
v  0.0000 4.6314 0.0928
v  0.4600 4.6314 -0.0000
v  0.2825 4.6309 0.0000
v  0.0000 4.6312 0.0000
v  0.0000 -1.3220 -0.0000
v  -0.0684 0.9243 -0.0659
v  -0.0570 -0.9250 -0.0555
v  -0.0684 0.9243 0.0659
v  -0.0570 -0.9250 0.0555
v  -0.0968 0.9243 -0.0000
v  -0.0806 -0.9249 -0.0000
v  -0.1824 -1.0248 -0.1334
v  -0.1814 -1.2335 -0.1334
v  -0.1824 -1.0248 0.1334
v  -0.1814 -1.2335 0.1334
v  -0.1828 -1.0248 -0.0000
v  -0.1818 -1.2335 -0.0000
v  -0.0916 -1.3220 -0.0870
v  -0.0916 -1.3220 0.0870
v  -0.0918 -1.3220 -0.0000
v  -0.0803 -0.9247 -0.0777
v  -0.0803 -0.9247 0.0777
v  -0.4967 0.9243 -0.1603
v  -0.4967 0.9243 0.1603
v  -0.4954 0.9243 -0.0000
v  -0.4967 1.4356 -0.1603
v  -0.5576 1.3227 -0.1603
v  -0.4967 1.4356 0.1603
v  -0.5576 1.3227 0.1603
v  -0.4954 1.4356 -0.0000
v  -0.5560 1.3227 -0.0000
v  -0.5576 1.0320 -0.1603
v  -0.5576 1.0320 0.1603
v  -0.5560 1.0320 -0.0000
v  -0.3003 1.4329 -0.0942
v  -0.3003 1.4329 0.0942
v  -0.4890 1.4329 -0.0000
v  -0.2825 4.6314 -0.0942
v  -0.2825 4.6314 0.0942
v  -0.4600 4.6314 -0.0000
v  -0.2825 4.6309 0.0000
# 96 vertices

vn 0.3393 0.0481 -0.9394
vn 0.3720 -0.0074 -0.9282
vn 0.3720 0.0014 -0.9282
vn 0.3720 0.0014 0.9282
vn 0.3720 -0.0074 0.9282
vn 0.3393 0.0481 0.9394
vn 0.9285 0.0745 0.3637
vn 0.9194 -0.0080 0.3931
vn 0.9195 0.0012 0.3932
vn 0.9195 0.0012 -0.3932
vn 0.9194 -0.0080 -0.3931
vn 0.9285 0.0745 -0.3637
vn 0.0076 -0.1266 -0.9919
vn 0.0075 0.1430 -0.9897
vn 0.0075 0.0607 -0.9981
vn 0.0075 -0.0482 -0.9988
vn 0.0075 -0.0482 0.9988
vn 0.0075 0.0607 0.9981
vn 0.0075 0.1430 0.9897
vn 0.0076 -0.1266 0.9919
vn 0.9661 -0.2581 0.0028
vn 0.9637 0.2671 0.0027
vn 0.9798 0.1999 0.0028
vn 0.9803 -0.1977 0.0029
vn 0.9803 -0.1977 -0.0029
vn 0.9798 0.1999 -0.0028
vn 0.9637 0.2671 -0.0027
vn 0.9661 -0.2581 -0.0028
vn 0.0072 -0.4689 -0.8832
vn 0.0072 -0.4689 0.8832
vn 0.7010 -0.7132 0.0019
vn 0.7010 -0.7132 -0.0019
vn 0.0069 0.5048 -0.8632
vn 0.0069 0.5048 0.8632
vn 0.6879 0.7258 0.0015
vn 0.6879 0.7258 -0.0015
vn 0.0000 -1.0000 0.0000
vn 0.0000 -1.0000 -0.0000
vn 0.0015 0.0001 -1.0000
vn 0.0015 0.0004 -1.0000
vn 0.0014 0.0000 -1.0000
vn 0.0015 0.0001 1.0000
vn 0.0014 0.0000 1.0000
vn 0.0015 0.0004 1.0000
vn 0.9887 0.1494 -0.0094
vn 0.8806 0.4737 -0.0081
vn 0.9889 0.1482 -0.0094
vn 0.9889 0.1482 0.0094
vn 0.8806 0.4737 0.0081
vn 0.9887 0.1494 0.0094
vn 0.0015 -0.0004 -1.0000
vn 0.0015 -0.0001 -1.0000
vn 0.0014 -0.0000 -1.0000
vn 0.0015 -0.0004 1.0000
vn 0.0014 -0.0000 1.0000
vn 0.0015 -0.0001 1.0000
vn 0.8711 -0.4910 -0.0080
vn 0.9884 -0.1513 -0.0094
vn 0.9886 -0.1501 -0.0094
vn 0.8711 -0.4910 0.0080
vn 0.9886 -0.1501 0.0094
vn 0.9884 -0.1513 0.0094
vn 0.0000 0.9992 0.0410
vn 0.0000 0.9992 -0.0410
vn -0.0219 0.9996 -0.0161
vn -0.0219 0.9996 0.0161
vn -0.0049 -0.0000 -1.0000
vn -0.0049 -0.0000 1.0000
vn 0.4576 0.0034 0.8892
vn 0.4576 0.0034 -0.8892
vn -0.0002 1.0000 0.0043
vn -0.0004 1.0000 -0.0000
vn -0.0028 1.0000 -0.0000
vn 0.0004 1.0000 -0.0000
vn 0.0004 1.0000 0.0040
vn 0.0004 1.0000 -0.0040
vn -0.0002 1.0000 -0.0043
vn -0.3720 -0.0074 -0.9282
vn -0.3393 0.0481 -0.9394
vn -0.3720 0.0014 -0.9282
vn -0.3720 -0.0074 0.9282
vn -0.3720 0.0014 0.9282
vn -0.3393 0.0481 0.9394
vn -0.9194 -0.0080 0.3931
vn -0.9285 0.0745 0.3637
vn -0.9195 0.0012 0.3932
vn -0.9194 -0.0080 -0.3931
vn -0.9195 0.0012 -0.3932
vn -0.9285 0.0745 -0.3637
vn -0.0075 0.0607 -0.9981
vn -0.0075 0.1430 -0.9897
vn -0.0076 -0.1266 -0.9919
vn -0.0075 -0.0482 -0.9988
vn -0.0075 0.1430 0.9897
vn -0.0075 0.0607 0.9981
vn -0.0075 -0.0482 0.9988
vn -0.0076 -0.1266 0.9919
vn -0.9798 0.1999 0.0028
vn -0.9637 0.2671 0.0027
vn -0.9661 -0.2581 0.0028
vn -0.9803 -0.1977 0.0029
vn -0.9637 0.2671 -0.0027
vn -0.9798 0.1999 -0.0028
vn -0.9803 -0.1977 -0.0029
vn -0.9661 -0.2581 -0.0028
vn -0.0072 -0.4689 -0.8832
vn -0.0072 -0.4689 0.8832
vn -0.7010 -0.7132 0.0019
vn -0.7010 -0.7132 -0.0019
vn -0.0069 0.5048 -0.8632
vn -0.0069 0.5048 0.8632
vn -0.6879 0.7258 0.0015
vn -0.6879 0.7258 -0.0015
vn -0.0015 0.0004 -1.0000
vn -0.0015 0.0001 -1.0000
vn -0.0014 0.0000 -1.0000
vn -0.0015 0.0001 1.0000
vn -0.0015 0.0004 1.0000
vn -0.0014 0.0000 1.0000
vn -0.8806 0.4737 -0.0081
vn -0.9887 0.1494 -0.0094
vn -0.9889 0.1482 -0.0094
vn -0.8806 0.4737 0.0081
vn -0.9889 0.1482 0.0094
vn -0.9887 0.1494 0.0094
vn -0.0015 -0.0004 -1.0000
vn -0.0014 -0.0000 -1.0000
vn -0.0015 -0.0001 -1.0000
vn -0.0015 -0.0001 1.0000
vn -0.0014 -0.0000 1.0000
vn -0.0015 -0.0004 1.0000
vn -0.9886 -0.1501 -0.0094
vn -0.9884 -0.1513 -0.0094
vn -0.8711 -0.4910 -0.0080
vn -0.9884 -0.1513 0.0094
vn -0.9886 -0.1501 0.0094
vn -0.8711 -0.4910 0.0080
vn -0.0000 0.9992 0.0410
vn -0.0000 0.9992 -0.0410
vn 0.0219 0.9996 -0.0161
vn 0.0219 0.9996 0.0161
vn 0.0049 -0.0000 -1.0000
vn 0.0049 -0.0000 1.0000
vn -0.4576 0.0034 0.8892
vn -0.4576 0.0034 -0.8892
vn 0.0002 1.0000 0.0043
vn 0.0028 1.0000 -0.0000
vn -0.0004 1.0000 0.0040
vn 0.0002 1.0000 -0.0043
vn -0.0004 1.0000 -0.0040
# 150 vertex normals

vt 0.5870 0.7939 0.0000
vt 0.7578 0.7857 0.0000
vt 0.7644 0.8110 0.0000
vt 0.5925 0.8151 0.0000
vt 0.5925 0.8581 0.0000
vt 0.7644 0.8622 0.0000
vt 0.7578 0.8876 0.0000
vt 0.5870 0.8793 0.0000
vt 0.5943 0.8366 0.0000
vt 0.7666 0.8366 0.0000
vt 0.3019 0.7976 0.0000
vt 0.3246 0.7255 0.0000
vt 0.4170 0.7656 0.0000
vt 0.3971 0.8282 0.0000
vt 0.8785 0.8796 0.0000
vt 0.8536 0.8289 0.0000
vt 0.9622 0.7691 0.0000
vt 0.9900 0.8289 0.0000
vt 0.8025 0.9246 0.0000
vt 0.7711 0.8626 0.0000
vt 0.5009 0.8020 0.0000
vt 0.4721 0.8691 0.0000
vt 0.3450 0.8663 0.0000
vt 0.2906 0.8331 0.0000
vt 0.9555 0.9012 0.0000
vt 0.9980 0.8705 0.0000
vt 0.8924 0.9670 0.0000
vt 0.4099 0.9141 0.0000
vt 0.3489 0.6895 0.0000
vt 0.4506 0.7233 0.0000
vt 0.8954 0.7636 0.0000
vt 0.9312 0.7383 0.0000
vt 0.8058 0.7687 0.0000
vt 0.4874 0.7253 0.0000
vt 0.7867 0.3824 0.0000
vt 0.7621 0.4415 0.0000
vt 0.7009 0.4415 0.0000
vt 0.7016 0.0126 0.0000
vt 0.9054 0.3824 0.0000
vt 0.9906 0.0126 0.0000
vt 0.9913 0.4415 0.0000
vt 0.9300 0.4415 0.0000
vt 0.8461 0.3579 0.0000
vt 0.8461 0.0138 0.0000
vt 0.3374 0.2788 0.0000
vt 0.3473 0.2788 0.0000
vt 0.3473 0.4465 0.0000
vt 0.3374 0.4592 0.0000
vt 0.3630 0.2893 0.0000
vt 0.3630 0.4446 0.0000
vt 0.3534 0.4328 0.0000
vt 0.3534 0.2893 0.0000
vt 0.8095 0.5819 0.0000
vt 0.7735 0.5819 0.0000
vt 0.7735 0.4265 0.0000
vt 0.8096 0.3869 0.0000
vt 0.8097 0.6976 0.0000
vt 0.7735 0.7373 0.0000
vt 0.3024 0.4465 0.0000
vt 0.3023 0.2788 0.0000
vt 0.3118 0.2788 0.0000
vt 0.3118 0.4592 0.0000
vt 0.3969 0.4328 0.0000
vt 0.3877 0.4446 0.0000
vt 0.3878 0.2893 0.0000
vt 0.3969 0.2893 0.0000
vt 0.9158 0.5819 0.0000
vt 0.8799 0.5819 0.0000
vt 0.8797 0.3869 0.0000
vt 0.9158 0.4264 0.0000
vt 0.9158 0.7372 0.0000
vt 0.8798 0.6976 0.0000
vt 0.4160 0.6990 0.0000
vt 0.8708 0.7582 0.0000
vt 0.6952 0.4445 0.0000
vt 0.6333 0.4446 0.0000
vt 0.6343 0.1840 0.0000
vt 0.6940 0.0135 0.0000
vt 0.4025 0.4445 0.0000
vt 0.4036 0.0135 0.0000
vt 0.4633 0.1840 0.0000
vt 0.4644 0.4446 0.0000
vt 0.5488 0.0148 0.0000
vt 0.5488 0.0203 0.0000
vt 0.2677 0.5246 0.0000
vt 0.0183 0.5200 0.0000
vt 0.0260 0.4728 0.0000
vt 0.2764 0.4744 0.0000
vt 0.2764 0.4037 0.0000
vt 0.0259 0.4054 0.0000
vt 0.0183 0.3588 0.0000
vt 0.2676 0.3542 0.0000
vt 0.2798 0.4389 0.0000
vt 0.0285 0.4389 0.0000
vt 0.6337 0.4632 0.0000
vt 0.5475 0.4632 0.0000
vt 0.5475 0.3077 0.0000
vt 0.5475 0.7105 0.0000
vt 0.6323 0.7105 0.0000
vt 0.4627 0.7105 0.0000
vt 0.4614 0.4632 0.0000
vt 0.3110 0.9367 0.0000
vt 0.9937 0.9698 0.0000
# 103 texture coords

g default
usemtl _DS_Greatswordlambert2SG
f 1/1/1 2/2/2 3/3/2 
f 3/3/2 4/4/3 1/1/1 
f 5/5/4 6/6/5 7/7/5 
f 7/7/5 8/8/6 5/5/4 
f 9/9/7 10/10/8 6/6/8 
f 6/6/8 5/5/9 9/9/7 
f 4/4/10 3/3/11 10/10/11 
f 10/10/11 9/9/12 4/4/10 
f 11/11/13 12/12/14 13/13/15 
f 13/13/15 14/14/16 11/11/13 
f 15/15/17 16/16/18 17/17/19 
f 17/17/19 18/18/20 15/15/17 
f 19/19/21 20/20/22 16/16/23 
f 16/16/23 15/15/24 19/19/21 
f 14/14/25 13/13/26 20/21/27 
f 20/21/27 19/22/28 14/14/25 
f 21/23/29 22/24/29 11/11/13 
f 11/11/13 14/14/16 21/23/29 
f 23/25/30 15/15/17 18/18/20 
f 18/18/20 24/26/30 23/25/30 
f 23/25/31 25/27/31 19/19/21 
f 19/19/21 15/15/24 23/25/31 
f 21/23/32 14/14/25 19/22/28 
f 19/22/28 25/28/32 21/23/32 
f 12/12/14 1/29/1 26/30/33 
f 26/30/33 13/13/15 12/12/14 
f 17/17/19 16/16/18 27/31/34 
f 27/31/34 8/32/6 17/17/19 
f 20/20/22 9/33/7 27/31/35 
f 27/31/35 16/16/23 20/20/22 
f 20/21/27 13/13/26 26/30/36 
f 26/30/36 9/34/12 20/21/27 
f 3/35/37 2/36/37 28/37/37 
f 28/37/37 29/38/37 3/35/37 
f 6/39/38 30/40/38 31/41/38 
f 31/41/38 7/42/38 6/39/38 
f 10/43/38 32/44/38 30/40/38 
f 30/40/38 6/39/38 10/43/38 
f 3/35/38 29/38/38 32/44/38 
f 32/44/38 10/43/38 3/35/38 
f 33/45/39 34/46/40 35/47/40 
f 35/47/40 36/48/41 33/45/39 
f 37/49/42 38/50/43 39/51/44 
f 39/51/44 40/52/44 37/49/42 
f 41/53/45 42/54/46 39/55/46 
f 39/55/46 38/56/47 41/53/45 
f 36/57/48 35/58/49 42/54/49 
f 42/54/49 41/53/50 36/57/48 
f 29/59/51 28/60/51 43/61/52 
f 43/61/52 44/62/53 29/59/51 
f 30/63/54 45/64/55 46/65/56 
f 46/65/56 31/66/54 30/63/54 
f 32/67/57 47/68/58 45/69/59 
f 45/69/59 30/70/57 32/67/57 
f 29/71/60 44/72/61 47/68/62 
f 47/68/62 32/67/60 29/71/60 
f 43/61/52 33/45/39 36/48/41 
f 36/48/41 44/62/53 43/61/52 
f 45/64/55 38/50/43 37/49/42 
f 37/49/42 46/65/56 45/64/55 
f 47/68/58 41/53/45 38/56/47 
f 38/56/47 45/69/59 47/68/58 
f 44/72/61 36/57/48 41/53/50 
f 41/53/50 47/68/62 44/72/61 
f 26/30/33 1/29/1 4/73/3 
f 8/32/6 27/31/34 5/74/4 
f 27/31/35 9/33/7 5/74/9 
f 9/34/12 26/30/36 4/73/10 
f 34/75/63 48/76/63 49/77/63 
f 49/77/63 35/78/63 34/75/63 
f 40/79/64 39/80/64 50/81/64 
f 50/81/64 51/82/64 40/79/64 
f 39/80/65 42/83/65 52/84/65 
f 52/84/65 50/81/65 39/80/65 
f 35/78/66 49/77/66 52/84/66 
f 52/84/66 42/83/66 35/78/66 
f 48/85/67 53/86/67 54/87/67 
f 54/87/67 49/88/67 48/85/67 
f 50/89/68 55/90/68 56/91/68 
f 56/91/68 51/92/68 50/89/68 
f 52/93/69 57/94/69 55/90/69 
f 55/90/69 50/89/69 52/93/69 
f 49/88/70 54/87/70 57/94/70 
f 57/94/70 52/93/70 49/88/70 
f 54/95/71 58/96/72 57/97/73 
f 59/98/74 58/96/72 54/95/71 
f 54/95/71 53/99/75 59/98/74 
f 59/98/74 56/100/76 55/101/77 
f 55/101/77 58/96/72 59/98/74 
f 57/97/73 58/96/72 55/101/77 
f 21/23/37 25/28/38 60/102/38 
f 60/102/38 22/24/37 21/23/37 
f 60/103/38 25/27/38 23/25/38 
f 23/25/38 24/26/38 60/103/38 
f 61/3/78 2/2/78 1/1/79 
f 1/1/79 62/4/80 61/3/78 
f 7/7/81 63/6/81 64/5/82 
f 64/5/82 8/8/83 7/7/81 
f 63/6/84 65/10/84 66/9/85 
f 66/9/85 64/5/86 63/6/84 
f 65/10/87 61/3/87 62/4/88 
f 62/4/88 66/9/89 65/10/87 
f 67/13/90 12/12/91 11/11/92 
f 11/11/92 68/14/93 67/13/90 
f 17/17/94 69/16/95 70/15/96 
f 70/15/96 18/18/97 17/17/94 
f 69/16/98 71/20/99 72/19/100 
f 72/19/100 70/15/101 69/16/98 
f 71/21/102 67/13/103 68/14/104 
f 68/14/104 72/22/105 71/21/102 
f 73/23/106 68/14/93 11/11/92 
f 11/11/92 22/24/106 73/23/106 
f 18/18/97 70/15/96 74/25/107 
f 74/25/107 24/26/107 18/18/97 
f 74/25/108 70/15/101 72/19/100 
f 72/19/100 75/27/108 74/25/108 
f 72/22/105 68/14/104 73/23/109 
f 73/23/109 75/28/109 72/22/105 
f 76/30/110 1/29/79 12/12/91 
f 12/12/91 67/13/90 76/30/110 
f 17/17/94 8/32/83 77/31/111 
f 77/31/111 69/16/95 17/17/94 
f 77/31/112 66/33/85 71/20/99 
f 71/20/99 69/16/98 77/31/112 
f 71/21/102 66/34/89 76/30/113 
f 76/30/113 67/13/103 71/21/102 
f 61/35/37 78/38/37 28/37/37 
f 28/37/37 2/36/37 61/35/37 
f 31/41/38 79/40/38 63/39/38 
f 63/39/38 7/42/38 31/41/38 
f 79/40/38 80/44/38 65/43/38 
f 65/43/38 63/39/38 79/40/38 
f 80/44/38 78/38/38 61/35/38 
f 61/35/38 65/43/38 80/44/38 
f 81/47/114 34/46/114 33/45/115 
f 33/45/115 82/48/116 81/47/114 
f 37/49/117 40/52/118 83/51/118 
f 83/51/118 84/50/119 37/49/117 
f 83/55/120 85/54/120 86/53/121 
f 86/53/121 84/56/122 83/55/120 
f 85/54/123 81/58/123 82/57/124 
f 82/57/124 86/53/125 85/54/123 
f 78/59/126 87/62/127 43/61/128 
f 43/61/128 28/60/126 78/59/126 
f 46/65/129 88/64/130 79/63/131 
f 79/63/131 31/66/131 46/65/129 
f 88/69/132 89/68/133 80/67/134 
f 80/67/134 79/70/134 88/69/132 
f 89/68/135 87/72/136 78/71/137 
f 78/71/137 80/67/137 89/68/135 
f 82/48/116 33/45/115 43/61/128 
f 43/61/128 87/62/127 82/48/116 
f 37/49/117 84/50/119 88/64/130 
f 88/64/130 46/65/129 37/49/117 
f 84/56/122 86/53/121 89/68/133 
f 89/68/133 88/69/132 84/56/122 
f 86/53/125 82/57/124 87/72/136 
f 87/72/136 89/68/135 86/53/125 
f 76/30/110 62/73/80 1/29/79 
f 8/32/83 64/74/82 77/31/111 
f 77/31/112 64/74/86 66/33/85 
f 66/34/89 62/73/88 76/30/113 
f 90/77/138 48/76/138 34/75/138 
f 34/75/138 81/78/138 90/77/138 
f 40/79/139 51/82/139 91/81/139 
f 91/81/139 83/80/139 40/79/139 
f 83/80/140 91/81/140 92/84/140 
f 92/84/140 85/83/140 83/80/140 
f 92/84/141 90/77/141 81/78/141 
f 81/78/141 85/83/141 92/84/141 
f 93/87/142 53/86/142 48/85/142 
f 48/85/142 90/88/142 93/87/142 
f 56/91/143 94/90/143 91/89/143 
f 91/89/143 51/92/143 56/91/143 
f 94/90/144 95/94/144 92/93/144 
f 92/93/144 91/89/144 94/90/144 
f 95/94/145 93/87/145 90/88/145 
f 90/88/145 92/93/145 95/94/145 
f 93/95/146 95/97/147 96/96/74 
f 93/95/146 96/96/74 59/98/72 
f 59/98/72 53/99/148 93/95/146 
f 94/101/149 56/100/150 59/98/72 
f 59/98/72 96/96/74 94/101/149 
f 95/97/147 94/101/149 96/96/74 
f 60/102/38 75/28/38 73/23/38 
f 73/23/38 22/24/38 60/102/38 
f 74/25/38 75/27/38 60/103/38 
f 60/103/38 24/26/38 74/25/38 
# 188 faces

