# 3ds Max Wavefront OBJ Exporter v0.97b - (c)2007 guruware
# File Created: 29.03.2017 19:45:35

mtllib DS_Bonfire.mtl

#
# object default
#

v  0.7111 1.8272 0.8144
v  0.7607 2.1309 0.8476
v  0.9159 2.1186 0.7102
v  0.8461 1.7141 0.6863
v  0.8792 1.8798 0.9425
v  0.9087 2.0826 0.9850
v  1.0142 1.7667 0.8144
v  1.0639 2.0703 0.8476
v  0.4804 0.1336 0.4724
v  0.4916 0.5432 0.7753
v  0.5672 0.6446 0.6106
v  0.5558 0.0307 0.4565
v  0.5310 0.1891 0.6515
v  0.6564 0.4202 0.7468
v  0.6064 0.0862 0.6356
v  0.7320 0.5215 0.5821
v  0.5472 0.9579 0.6377
v  0.7672 0.8005 0.6222
v  0.7031 1.0208 0.7948
v  0.9232 0.8634 0.7793
v  0.7395 1.4265 0.7356
v  0.7022 1.3197 0.9095
v  0.8397 1.2099 0.8495
v  0.8770 1.3167 0.6756
v  0.1974 -1.3989 0.3271
v  0.3148 -1.4415 0.2704
v  0.3033 -1.4066 0.4248
v  0.4207 -1.4492 0.3681
v  0.0929 -2.1131 0.2721
v  0.2047 -2.1237 0.2242
v  0.2022 -2.1321 0.3200
v  0.3140 -2.1428 0.2721
v  0.2250 -2.0554 0.0089
v  -0.0098 -2.0326 0.1032
v  0.4549 -2.0949 0.1032
v  -0.0835 -2.0390 0.2819
v  -0.0192 -2.0640 0.4607
v  0.2107 -2.1035 0.5550
v  0.4455 -2.1264 0.4607
v  0.5192 -2.1199 0.2819
v  1.6578 -3.0821 -1.4732
v  1.8827 -3.3652 -1.7803
v  0.5334 -3.3651 -2.0225
v  0.5376 -3.0595 -1.5581
v  -0.6142 -3.0526 -1.4729
v  -0.8159 -3.3651 -1.8451
v  -1.9280 -3.3656 0.0758
v  -1.4630 -3.0454 0.1182
v  -0.9427 -3.3662 2.0471
v  -0.7064 -3.0342 1.7294
v  0.4066 -3.3663 2.2893
v  0.4423 -3.0723 1.8857
v  1.4737 -3.0428 1.7109
v  1.7559 -3.3663 2.1118
v  2.4429 -3.0864 0.2095
v  2.8680 -3.3658 0.1909
v  1.1882 -2.2713 0.2887
v  0.8920 -2.1902 -0.0971
v  0.8360 -2.3000 0.6225
v  0.2376 -2.2023 0.9212
v  -0.4428 -2.1972 0.8886
v  -0.6807 -2.0921 0.2572
v  -0.2786 -1.8720 -0.0543
v  0.3308 -1.9279 -0.0938
v  1.6020 -2.6280 0.2333
v  1.2463 -2.6257 -0.7075
v  0.9819 -2.5466 0.9253
v  0.4315 -2.5288 1.2189
v  -0.5917 -2.4362 1.1384
v  -1.0002 -2.4234 0.1975
v  -0.3214 -2.1260 -0.7295
v  0.5512 -2.2686 -0.8232
v  2.0783 -2.8223 0.2279
v  1.5204 -2.8264 -1.1515
v  1.1334 -2.8903 1.0922
v  0.4437 -2.9190 1.3385
v  -0.5295 -2.7627 1.3145
v  -1.1687 -2.7800 0.1515
v  -0.4215 -2.7831 -1.1945
v  0.5505 -2.8011 -1.2104
v  0.6327 2.3721 0.6124
v  0.6558 2.4872 0.6281
v  0.7426 2.4803 0.5512
v  0.7196 2.3652 0.5355
v  0.7066 2.2761 1.2081
v  0.7296 2.3913 1.2237
v  0.6407 2.4203 1.1412
v  0.6177 2.3051 1.1255
v  1.2776 2.1703 1.1473
v  1.3006 2.2854 1.1630
v  1.2120 2.2924 1.2415
v  1.1889 2.1773 1.2259
v  1.1877 2.2710 0.5405
v  1.2107 2.3861 0.5562
v  1.2931 2.3592 0.6327
v  1.2701 2.2441 0.6170
v  0.8015 2.3352 0.8754
v  1.1780 3.9456 1.0953
v  1.2783 3.9369 1.0123
v  0.9567 2.3229 0.7380
v  0.9495 2.2869 1.0128
v  1.2758 3.9144 1.1805
v  1.1047 2.2746 0.8754
v  1.3760 3.9057 1.0974
v  0.4700 -3.3657 0.1334
v  1.2946 4.0111 1.1528
v  1.2434 4.0274 1.1082
v  1.2959 4.0228 1.0648
v  1.3471 4.0065 1.1094
v  1.4193 3.9666 1.1357
v  1.3276 3.9767 1.2232
v  1.3677 4.0414 1.1275
v  1.3238 4.0462 1.1694
v  1.1565 4.0236 1.0747
v  1.2493 4.0233 0.9875
v  1.2364 4.0638 1.1028
v  1.2809 4.0637 1.0610
v  1.4212 4.1316 1.1830
v  1.3713 4.1301 1.2313
v  1.3686 4.1149 1.1613
v  1.3447 4.1141 1.1845
v  1.2211 4.1851 1.0909
v  1.2737 4.1841 1.0452
v  1.2557 4.1419 1.1009
v  1.2809 4.1414 1.0790
v  1.2648 4.2517 1.1162
v  1.3029 4.2485 1.0817
v  1.2865 4.2059 1.1188
v  1.3047 4.2044 1.1023
v  1.4118 4.2157 1.1843
v  1.3756 4.2165 1.2206
v  1.3700 4.1902 1.1642
v  1.3526 4.1906 1.1816
v  1.3258 4.2324 1.1552
v  1.3265 4.2745 1.1744
v  1.3445 4.2313 1.1374
v  1.3656 4.2721 1.1372
# 137 vertices

vn -0.7187 0.1249 -0.6840
vn -0.6253 0.1669 -0.7623
vn -0.7163 0.1261 -0.6863
vn -0.3289 0.0046 0.9444
vn -0.6430 -0.0140 0.7658
vn -0.4891 -0.0045 0.8722
vn 0.7128 -0.2225 0.6651
vn 0.7725 -0.2285 0.5925
vn 0.6092 -0.2094 0.7649
vn 0.5199 -0.0178 -0.8541
vn 0.4459 -0.0014 -0.8951
vn 0.6428 -0.0467 -0.7646
vn -0.4483 0.2110 -0.8686
vn -0.6124 0.1419 -0.7777
vn -0.6449 0.1786 -0.7431
vn -0.2967 0.1643 -0.9407
vn -0.8340 -0.0099 0.5516
vn -0.4410 -0.0134 0.8974
vn -0.4217 0.0159 0.9066
vn -0.8541 0.0344 0.5190
vn 0.3211 -0.2097 0.9236
vn 0.4889 -0.3293 0.8078
vn 0.5473 -0.3283 0.7699
vn 0.2907 -0.2007 0.9355
vn 0.8137 -0.0379 -0.5800
vn 0.5389 0.0193 -0.8422
vn 0.4612 0.0528 -0.8857
vn 0.8250 -0.0402 -0.5636
vn -0.5153 0.2212 -0.8280
vn -0.5105 0.2957 -0.8074
vn -0.3570 -0.0719 0.9313
vn -0.3556 0.0148 0.9345
vn 0.5015 -0.2266 0.8350
vn 0.4812 -0.2654 0.8355
vn 0.3453 0.0520 -0.9371
vn 0.3366 0.0450 -0.9406
vn -0.7255 0.2017 -0.6580
vn -0.7040 0.2213 -0.6748
vn -0.2619 -0.1051 0.9594
vn -0.2514 -0.0779 0.9648
vn 0.7727 -0.1631 0.6134
vn 0.7789 -0.1688 0.6040
vn 0.2833 0.0354 -0.9584
vn 0.2633 0.0382 -0.9640
vn -0.2868 0.1428 -0.9473
vn -0.3091 0.1392 -0.9408
vn -0.7746 0.0495 0.6305
vn -0.8234 0.0663 0.5636
vn 0.2583 -0.1817 0.9488
vn 0.3011 -0.1826 0.9359
vn 0.7710 -0.0328 -0.6360
vn 0.8216 -0.0413 -0.5685
vn -0.3874 0.1257 -0.9133
vn -0.5614 -0.0116 0.8275
vn 0.3724 -0.1833 0.9098
vn 0.5602 -0.0027 -0.8283
vn 0.1265 0.9421 0.3106
vn 0.3180 0.9163 0.2435
vn 0.3164 0.9468 -0.0583
vn 0.1320 0.9834 -0.1246
vn -0.0450 0.9975 -0.0551
vn -0.0539 0.9716 0.2302
vn 0.0816 0.8028 -0.5907
vn 0.0854 0.8037 -0.5889
vn 0.0725 0.8004 -0.5950
vn -0.0527 0.8030 -0.5936
vn -0.0476 0.7974 -0.6015
vn -0.0590 0.8098 -0.5837
vn -0.5695 0.7588 -0.3160
vn -0.5476 0.7783 -0.3072
vn -0.5553 0.7716 -0.3103
vn -0.5927 0.7526 0.2868
vn -0.5905 0.7551 0.2849
vn -0.5954 0.7496 0.2891
vn -0.0492 0.8179 0.5732
vn -0.0893 0.7686 0.6335
vn -0.0310 0.8381 0.5446
vn 0.0685 0.8458 0.5292
vn 0.0546 0.8992 0.4341
vn 0.0777 0.8022 0.5920
vn 0.4879 0.8200 0.2993
vn 0.4032 0.8702 0.2830
vn 0.5172 0.7999 0.3045
vn 0.5604 0.7845 -0.2657
vn 0.5511 0.7909 -0.2660
vn 0.5781 0.7717 -0.2650
vn 0.2241 0.9738 0.0398
vn 0.5686 0.7916 -0.2238
vn 0.4259 0.8982 -0.1086
vn 0.2436 0.9325 0.2665
vn 0.3765 0.8525 0.3627
vn 0.5196 0.7186 0.4623
vn 0.2619 0.9263 0.2709
vn 0.3055 0.8681 0.3913
vn 0.3462 0.7852 0.5135
vn 0.0075 0.9589 0.2838
vn -0.0062 0.7345 0.6786
vn -0.0044 0.7732 0.6342
vn -0.1012 0.9757 0.1944
vn -0.5762 0.7559 0.3108
vn -0.4399 0.8523 0.2829
vn 0.0201 0.9000 0.4355
vn -0.4996 0.8641 -0.0612
vn -0.6244 0.7461 -0.2311
vn 0.1742 0.7125 0.6797
vn 0.0942 0.9325 -0.3486
vn 0.0931 0.9300 -0.3556
vn 0.2481 0.8103 0.5308
vn 0.4429 0.8484 -0.2900
vn 0.4109 0.9116 -0.0115
vn 0.4360 0.8829 -0.1743
vn 0.4932 0.8468 -0.1991
vn 0.5218 0.7049 0.4805
vn 0.4966 0.7183 0.4873
vn 0.3632 0.6844 0.6322
vn 0.3672 0.5170 0.7732
vn -0.0048 0.5652 0.8250
vn -0.0020 0.4333 0.9013
vn -0.8494 0.3188 0.4207
vn -0.8371 0.3579 0.4138
vn -0.7687 0.4921 -0.4086
vn -0.7764 0.4699 -0.4200
vn 0.0222 0.6753 -0.7372
vn 0.0476 0.7819 -0.6215
vn 0.2835 0.7909 -0.5424
vn 0.3892 0.8337 -0.3917
vn 0.5550 0.7966 -0.2394
vn 0.4924 0.8454 -0.2070
vn 0.4197 0.8172 0.3950
vn 0.3291 0.9013 0.2818
vn 0.1793 0.8243 0.5370
vn 0.0661 0.9443 0.3224
vn 0.0287 0.7283 0.6847
vn 0.0390 0.8296 0.5571
vn -0.6678 0.6679 0.3286
vn -0.6397 0.7014 0.3144
vn -0.6915 0.6132 -0.3819
vn -0.6576 0.6606 -0.3622
vn -0.0109 0.6905 -0.7232
vn -0.0091 0.6763 -0.7366
vn 0.0933 0.7932 -0.6018
vn 0.1731 0.7804 -0.6009
vn -0.6353 0.2276 -0.7380
vn -0.6740 0.0341 0.7380
vn 0.6353 -0.2276 0.7380
vn 0.6740 -0.0341 -0.7380
vn -0.6210 0.2484 -0.7434
vn -0.6607 0.0538 0.7488
vn 0.6296 -0.2051 0.7493
vn 0.6697 -0.0088 -0.7426
vn -0.0000 -1.0000 -0.0003
vn -0.0001 -1.0000 -0.0003
vn 0.1277 -0.9647 0.2305
vn 0.8247 -0.0887 -0.5586
vn 0.0285 0.9980 -0.0570
vn -0.6571 0.0286 0.7533
vn -0.5063 -0.8236 0.2558
vn 0.6163 -0.2260 0.7543
vn 0.3699 0.9262 -0.0728
vn -0.7964 0.2351 -0.5572
vn -0.4854 -0.7287 -0.4831
vn -0.8322 0.0918 0.5468
vn 0.3584 0.8746 0.3266
vn 0.6466 -0.0253 -0.7624
vn 0.1742 -0.8551 -0.4883
vn -0.6037 0.2249 -0.7649
vn 0.0015 0.9439 0.3303
vn 0.8057 -0.2351 0.5436
vn -0.5594 0.3268 0.7617
vn 0.6798 0.2756 -0.6796
vn 0.1943 0.9720 0.1324
vn 0.4316 -0.7042 0.5637
vn 0.4393 0.2197 -0.8710
vn -0.4749 0.6376 -0.6066
vn -0.7831 0.3293 0.5276
vn -0.6215 -0.3798 -0.6852
vn -0.3623 0.1204 0.9242
vn 0.6432 0.2685 0.7171
vn 0.8429 0.1778 -0.5078
vn 0.6687 -0.2192 0.7105
vn 0.4100 0.2896 -0.8649
vn -0.6412 0.3372 -0.6893
vn -0.8946 0.2210 0.3885
vn -0.6339 0.3348 -0.6972
vn -0.3148 0.0535 0.9476
vn 0.6652 -0.1582 0.7297
vn 0.9403 0.0116 -0.3402
vn -0.5225 0.5844 -0.6209
vn -0.3646 -0.0987 0.9259
vn -0.5388 -0.2464 0.8056
vn -0.3890 -0.1186 0.9136
vn 0.5747 -0.4647 0.6736
vn 0.8898 -0.1722 -0.4227
vn 0.8628 -0.2002 -0.4642
vn 0.7715 -0.2756 -0.5734
vn 0.6995 0.0595 0.7122
vn 0.3884 0.0437 -0.9204
vn 0.4908 -0.1767 -0.8532
vn 0.3998 0.0216 -0.9163
vn -0.7005 0.0430 -0.7123
vn -0.8821 0.1043 0.4593
vn -0.8773 0.0654 0.4755
vn -0.8368 -0.1081 0.5367
vn -0.7314 -0.2327 0.6410
vn -0.6651 -0.2567 0.7012
vn -0.3840 -0.8571 -0.3434
vn -0.5336 -0.6685 -0.5181
vn 0.1006 -0.9777 0.1843
vn 0.6683 -0.2998 -0.6808
vn 0.5577 -0.2590 -0.7886
vn 0.3512 0.8829 0.3116
vn 0.0032 0.9974 -0.0726
vn 0.4706 0.7592 0.4497
vn 0.2736 -0.8909 0.3625
vn -0.1469 0.9616 -0.2317
# 215 vertex normals

vt 0.8877 0.1814 0.0000
vt 0.8876 0.1928 0.0000
vt 0.8538 0.1816 0.0000
vt 0.8540 0.1712 0.0000
vt 0.9266 0.1677 0.0000
vt 0.9247 0.1759 0.0000
vt 0.9610 0.1572 0.0000
vt 0.9611 0.1659 0.0000
vt 0.8066 0.1587 0.0000
vt 0.8054 0.1639 0.0000
vt 0.8909 0.0990 0.0000
vt 0.8876 0.1124 0.0000
vt 0.8574 0.1118 0.0000
vt 0.8606 0.0990 0.0000
vt 0.9209 0.0910 0.0000
vt 0.9338 0.0983 0.0000
vt 0.9549 0.0941 0.0000
vt 0.9624 0.1018 0.0000
vt 0.8201 0.1007 0.0000
vt 0.8278 0.0916 0.0000
vt 0.8963 0.1335 0.0000
vt 0.8507 0.1423 0.0000
vt 0.9266 0.1252 0.0000
vt 0.9614 0.1242 0.0000
vt 0.8106 0.1335 0.0000
vt 0.8601 0.1623 0.0000
vt 0.8873 0.1588 0.0000
vt 0.9301 0.1467 0.0000
vt 0.9605 0.1486 0.0000
vt 0.8083 0.1493 0.0000
vt 0.8971 0.0735 0.0000
vt 0.8611 0.0790 0.0000
vt 0.9222 0.0621 0.0000
vt 0.9575 0.0630 0.0000
vt 0.8373 0.0725 0.0000
vt 0.8929 0.0489 0.0000
vt 0.8584 0.0517 0.0000
vt 0.9265 0.0357 0.0000
vt 0.9621 0.0354 0.0000
vt 0.8283 0.0483 0.0000
vt 0.6292 0.5915 0.0000
vt 0.6214 0.6379 0.0000
vt 0.6103 0.5929 0.0000
vt 0.6210 0.5452 0.0000
vt 0.6063 0.6148 0.0000
vt 0.6063 0.6514 0.0000
vt 0.5911 0.6380 0.0000
vt 0.6021 0.5930 0.0000
vt 0.5826 0.5924 0.0000
vt 0.5902 0.5461 0.0000
vt 0.6061 0.5709 0.0000
vt 0.6054 0.5318 0.0000
vt 0.7435 0.2694 0.0000
vt 0.7662 0.2133 0.0000
vt 0.7931 0.4815 0.0000
vt 0.7562 0.4923 0.0000
vt 0.7453 0.7245 0.0000
vt 0.7733 0.7538 0.0000
vt 0.5953 0.9676 0.0000
vt 0.5993 0.8882 0.0000
vt 0.4382 0.7711 0.0000
vt 0.4698 0.7373 0.0000
vt 0.4166 0.5111 0.0000
vt 0.4546 0.5138 0.0000
vt 0.4709 0.3119 0.0000
vt 0.4327 0.2448 0.0000
vt 0.5979 0.1171 0.0000
vt 0.5956 0.0223 0.0000
vt 0.6026 0.3957 0.0000
vt 0.6369 0.4565 0.0000
vt 0.5739 0.4637 0.0000
vt 0.5504 0.5839 0.0000
vt 0.5547 0.7131 0.0000
vt 0.6039 0.7658 0.0000
vt 0.6351 0.6969 0.0000
vt 0.6398 0.5759 0.0000
vt 0.6022 0.3005 0.0000
vt 0.6842 0.3694 0.0000
vt 0.5446 0.4260 0.0000
vt 0.5201 0.5346 0.0000
vt 0.5315 0.7316 0.0000
vt 0.6018 0.8177 0.0000
vt 0.6886 0.6979 0.0000
vt 0.6986 0.5203 0.0000
vt 0.5999 0.1994 0.0000
vt 0.7189 0.3071 0.0000
vt 0.5253 0.3833 0.0000
vt 0.4940 0.5215 0.0000
vt 0.5049 0.7356 0.0000
vt 0.6014 0.8400 0.0000
vt 0.7249 0.6958 0.0000
vt 0.7287 0.4996 0.0000
vt 0.8789 0.4887 0.0000
vt 0.8771 0.4914 0.0000
vt 0.8613 0.4799 0.0000
vt 0.8623 0.4768 0.0000
vt 0.8524 0.3697 0.0000
vt 0.8535 0.3729 0.0000
vt 0.8393 0.3865 0.0000
vt 0.8376 0.3840 0.0000
vt 0.9664 0.4848 0.0000
vt 0.9651 0.4876 0.0000
vt 0.9494 0.4776 0.0000
vt 0.9498 0.4744 0.0000
vt 0.9459 0.3758 0.0000
vt 0.9464 0.3793 0.0000
vt 0.9329 0.3907 0.0000
vt 0.9315 0.3881 0.0000
vt 0.8936 0.2792 0.0000
vt 0.8937 0.2361 0.0000
vt 0.9147 0.2311 0.0000
vt 0.9263 0.2714 0.0000
vt 0.8609 0.2712 0.0000
vt 0.8724 0.2308 0.0000
vt 0.8290 0.2605 0.0000
vt 0.8519 0.2241 0.0000
vt 0.9357 0.2243 0.0000
vt 0.9582 0.2610 0.0000
vt 0.3735 0.7796 0.0000
vt 0.2086 0.9777 0.0000
vt 0.2031 0.5003 0.0000
vt 0.3885 0.5108 0.0000
vt 0.0388 0.7582 0.0000
vt 0.0178 0.4898 0.0000
vt 0.0327 0.2209 0.0000
vt 0.1977 0.0228 0.0000
vt 0.3674 0.2423 0.0000
vt 0.9707 0.4403 0.0000
vt 0.9469 0.4153 0.0000
vt 0.9761 0.4413 0.0000
vt 0.9695 0.4851 0.0000
vt 0.9416 0.4160 0.0000
vt 0.9465 0.4747 0.0000
vt 0.9343 0.4893 0.0000
vt 0.9208 0.4438 0.0000
vt 0.8513 0.3140 0.0000
vt 0.8281 0.3399 0.0000
vt 0.8568 0.3145 0.0000
vt 0.8559 0.3698 0.0000
vt 0.8783 0.3392 0.0000
vt 0.8733 0.3819 0.0000
vt 0.8229 0.3413 0.0000
vt 0.8346 0.3845 0.0000
vt 0.8864 0.4461 0.0000
vt 0.8634 0.4178 0.0000
vt 0.8921 0.4475 0.0000
vt 0.8822 0.4892 0.0000
vt 0.8578 0.4181 0.0000
vt 0.8588 0.4769 0.0000
vt 0.8455 0.4906 0.0000
vt 0.8340 0.4463 0.0000
vt 0.9478 0.3196 0.0000
vt 0.9233 0.3448 0.0000
vt 0.9533 0.3204 0.0000
vt 0.9494 0.3762 0.0000
vt 0.9735 0.3470 0.0000
vt 0.9650 0.3883 0.0000
vt 0.9181 0.3462 0.0000
vt 0.9284 0.3886 0.0000
vt 0.9125 0.5352 0.0000
vt 0.9081 0.5350 0.0000
vt 0.9067 0.5207 0.0000
vt 0.9112 0.5106 0.0000
vt 0.8936 0.5213 0.0000
vt 0.8980 0.5216 0.0000
vt 0.8994 0.5358 0.0000
vt 0.8950 0.5459 0.0000
vt 0.9339 0.5768 0.0000
vt 0.9308 0.5764 0.0000
vt 0.9253 0.5598 0.0000
vt 0.9323 0.5533 0.0000
vt 0.9261 0.5811 0.0000
vt 0.9246 0.5795 0.0000
vt 0.9186 0.5905 0.0000
vt 0.9173 0.5866 0.0000
vt 0.9289 0.5489 0.0000
vt 0.9219 0.5534 0.0000
vt 0.8755 0.5526 0.0000
vt 0.8789 0.5540 0.0000
vt 0.8799 0.5693 0.0000
vt 0.8707 0.5730 0.0000
vt 0.8820 0.5494 0.0000
vt 0.8833 0.5501 0.0000
vt 0.8846 0.5835 0.0000
vt 0.8739 0.5759 0.0000
vt 0.8808 0.5758 0.0000
vt 0.8890 0.5832 0.0000
vt 0.9248 0.5733 0.0000
vt 0.9209 0.5629 0.0000
vt 0.9191 0.5790 0.0000
vt 0.9150 0.5836 0.0000
vt 0.9175 0.5574 0.0000
vt 0.8836 0.5569 0.0000
vt 0.8861 0.5691 0.0000
vt 0.8875 0.5532 0.0000
vt 0.8872 0.5752 0.0000
vt 0.8908 0.5808 0.0000
vt 0.8873 0.5588 0.0000
vt 0.8914 0.5696 0.0000
vt 0.8938 0.5567 0.0000
vt 0.8933 0.5737 0.0000
vt 0.8913 0.5780 0.0000
vt 0.9206 0.5731 0.0000
vt 0.9165 0.5639 0.0000
vt 0.9140 0.5771 0.0000
vt 0.9107 0.5809 0.0000
vt 0.9127 0.5599 0.0000
vt 0.9034 0.5594 0.0000
vt 0.9016 0.5622 0.0000
vt 0.9039 0.5752 0.0000
vt 0.8995 0.5784 0.0000
vt 0.9072 0.5731 0.0000
# 212 texture coords

g default
usemtl _Bonfirelambert2SG
f 1/1/1 2/2/2 3/3/2 
f 3/3/2 4/4/3 1/1/1 
f 5/5/4 6/6/5 2/2/5 
f 2/2/5 1/1/6 5/5/4 
f 5/5/7 7/7/8 8/8/9 
f 8/8/9 6/6/9 5/5/7 
f 7/9/10 4/4/11 3/3/12 
f 3/3/12 8/10/12 7/9/10 
f 9/11/13 10/12/14 11/13/15 
f 11/13/15 12/14/16 9/11/13 
f 13/15/17 14/16/18 10/12/19 
f 10/12/19 9/11/20 13/15/17 
f 15/17/21 16/18/22 14/16/23 
f 14/16/23 13/15/24 15/17/21 
f 12/14/25 11/13/26 16/19/27 
f 16/19/27 15/20/28 12/14/25 
f 11/13/15 10/12/14 17/21/29 
f 17/21/29 18/22/30 11/13/15 
f 10/12/19 14/16/18 19/23/31 
f 19/23/31 17/21/32 10/12/19 
f 14/16/23 16/18/22 20/24/33 
f 20/24/33 19/23/34 14/16/23 
f 16/19/27 11/13/26 18/22/35 
f 18/22/35 20/25/36 16/19/27 
f 21/26/37 22/27/38 1/1/1 
f 1/1/1 4/4/3 21/26/37 
f 22/27/39 23/28/40 5/5/4 
f 5/5/4 1/1/6 22/27/39 
f 23/28/41 24/29/42 7/7/8 
f 7/7/8 5/5/7 23/28/41 
f 24/30/43 21/26/44 4/4/11 
f 4/4/11 7/9/10 24/30/43 
f 17/21/29 22/27/38 21/26/37 
f 21/26/37 18/22/30 17/21/29 
f 19/23/31 23/28/40 22/27/39 
f 22/27/39 17/21/32 19/23/31 
f 24/29/42 23/28/41 19/23/34 
f 19/23/34 20/24/33 24/29/42 
f 18/22/35 21/26/44 24/30/43 
f 24/30/43 20/25/36 18/22/35 
f 25/31/45 9/11/13 12/14/16 
f 12/14/16 26/32/46 25/31/45 
f 27/33/47 13/15/17 9/11/20 
f 9/11/20 25/31/48 27/33/47 
f 27/33/49 28/34/50 15/17/21 
f 15/17/21 13/15/24 27/33/49 
f 28/35/51 26/32/52 12/14/25 
f 12/14/25 15/20/28 28/35/51 
f 29/36/53 25/31/45 26/32/46 
f 26/32/46 30/37/53 29/36/53 
f 31/38/54 27/33/47 25/31/48 
f 25/31/48 29/36/54 31/38/54 
f 31/38/55 32/39/55 28/34/50 
f 28/34/50 27/33/49 31/38/55 
f 32/40/56 30/37/56 26/32/52 
f 26/32/52 28/35/51 32/40/56 
f 33/41/57 34/42/57 30/43/57 
f 30/43/57 35/44/57 33/41/57 
f 29/45/58 30/43/58 34/42/58 
f 34/42/58 36/46/58 29/45/58 
f 29/45/59 36/46/59 37/47/59 
f 37/47/59 31/48/59 29/45/59 
f 38/49/60 39/50/60 31/48/60 
f 31/48/60 37/47/60 38/49/60 
f 32/51/61 31/48/61 39/50/61 
f 39/50/61 40/52/61 32/51/61 
f 32/51/62 40/52/62 35/44/62 
f 35/44/62 30/43/62 32/51/62 
f 41/53/63 42/54/64 43/55/64 
f 43/55/64 44/56/65 41/53/63 
f 45/57/66 44/56/67 43/55/68 
f 43/55/68 46/58/68 45/57/66 
f 45/57/69 46/58/70 47/59/70 
f 47/59/70 48/60/71 45/57/69 
f 48/60/72 47/59/73 49/61/73 
f 49/61/73 50/62/74 48/60/72 
f 50/62/75 49/61/76 51/63/76 
f 51/63/76 52/64/77 50/62/75 
f 53/65/78 52/64/79 51/63/80 
f 51/63/80 54/66/80 53/65/78 
f 55/67/81 53/65/82 54/66/83 
f 54/66/83 56/68/83 55/67/81 
f 55/67/84 56/68/85 42/54/85 
f 42/54/85 41/53/86 55/67/84 
f 40/52/87 57/69/88 58/70/89 
f 58/70/89 35/44/87 40/52/87 
f 40/52/90 39/50/90 59/71/91 
f 59/71/91 57/69/92 40/52/90 
f 39/50/93 38/49/93 60/72/94 
f 60/72/94 59/71/95 39/50/93 
f 37/47/96 61/73/97 60/72/98 
f 60/72/98 38/49/96 37/47/96 
f 37/47/99 36/46/99 62/74/100 
f 62/74/100 61/73/101 37/47/99 
f 36/46/102 34/42/102 63/75/103 
f 63/75/103 62/74/104 36/46/102 
f 34/42/105 33/41/105 64/76/106 
f 64/76/106 63/75/107 34/42/105 
f 35/44/108 58/70/109 64/76/110 
f 64/76/110 33/41/108 35/44/108 
f 58/70/89 57/69/88 65/77/111 
f 65/77/111 66/78/112 58/70/89 
f 57/69/92 59/71/91 67/79/113 
f 67/79/113 65/77/114 57/69/92 
f 59/71/95 60/72/94 68/80/115 
f 68/80/115 67/79/116 59/71/95 
f 60/72/98 61/73/97 69/81/117 
f 69/81/117 68/80/118 60/72/98 
f 61/73/101 62/74/100 70/82/119 
f 70/82/119 69/81/120 61/73/101 
f 63/75/103 71/83/121 70/82/122 
f 70/82/122 62/74/104 63/75/103 
f 64/76/106 72/84/123 71/83/124 
f 71/83/124 63/75/107 64/76/106 
f 58/70/109 66/78/125 72/84/126 
f 72/84/126 64/76/110 58/70/109 
f 66/78/112 65/77/111 73/85/127 
f 73/85/127 74/86/128 66/78/112 
f 65/77/114 67/79/113 75/87/129 
f 75/87/129 73/85/130 65/77/114 
f 67/79/116 68/80/115 76/88/131 
f 76/88/131 75/87/132 67/79/116 
f 68/80/118 69/81/117 77/89/133 
f 77/89/133 76/88/134 68/80/118 
f 69/81/120 70/82/119 78/90/135 
f 78/90/135 77/89/136 69/81/120 
f 71/83/121 79/91/137 78/90/138 
f 78/90/138 70/82/122 71/83/121 
f 72/84/123 80/92/139 79/91/140 
f 79/91/140 71/83/124 72/84/123 
f 66/78/125 74/86/141 80/92/142 
f 80/92/142 72/84/126 66/78/125 
f 74/86/128 73/85/127 55/67/84 
f 55/67/84 41/53/86 74/86/128 
f 75/87/129 53/65/82 55/67/81 
f 55/67/81 73/85/130 75/87/129 
f 75/87/132 76/88/131 52/64/79 
f 52/64/79 53/65/78 75/87/132 
f 77/89/133 50/62/75 52/64/77 
f 52/64/77 76/88/134 77/89/133 
f 77/89/136 78/90/135 48/60/72 
f 48/60/72 50/62/74 77/89/136 
f 79/91/137 45/57/69 48/60/71 
f 48/60/71 78/90/138 79/91/137 
f 79/91/140 80/92/139 44/56/67 
f 44/56/67 45/57/66 79/91/140 
f 74/86/141 41/53/63 44/56/65 
f 44/56/65 80/92/142 74/86/141 
f 81/93/143 82/94/143 83/95/143 
f 83/95/143 84/96/143 81/93/143 
f 85/97/144 86/98/144 87/99/144 
f 87/99/144 88/100/144 85/97/144 
f 89/101/145 90/102/145 91/103/145 
f 91/103/145 92/104/145 89/101/145 
f 93/105/146 94/106/146 95/107/146 
f 95/107/146 96/108/146 93/105/146 
f 97/109/147 98/110/147 99/111/147 
f 99/111/147 100/112/147 97/109/147 
f 101/113/148 102/114/148 98/110/148 
f 98/110/148 97/109/148 101/113/148 
f 103/115/149 104/116/149 102/114/149 
f 102/114/149 101/113/149 103/115/149 
f 100/112/150 99/111/150 104/117/150 
f 104/117/150 103/118/150 100/112/150 
f 42/119/151 56/120/151 105/121/151 
f 105/121/151 43/122/151 42/119/151 
f 105/121/151 56/120/151 54/123/152 
f 54/123/152 51/124/151 105/121/151 
f 105/121/151 51/124/151 49/125/151 
f 49/125/151 47/126/151 105/121/151 
f 105/121/151 47/126/151 46/127/152 
f 46/127/152 43/122/151 105/121/151 
f 8/128/153 89/101/153 92/104/153 
f 92/104/153 6/129/153 8/128/153 
f 103/130/154 90/131/154 89/101/154 
f 89/101/154 8/128/154 103/130/154 
f 101/132/155 91/133/155 90/134/155 
f 90/134/155 103/135/155 101/132/155 
f 101/132/156 6/129/156 92/104/156 
f 92/104/156 91/133/156 101/132/156 
f 6/136/157 85/97/157 88/100/157 
f 88/100/157 2/137/157 6/136/157 
f 101/138/158 86/139/158 85/97/158 
f 85/97/158 6/136/158 101/138/158 
f 97/140/159 87/141/159 86/139/159 
f 86/139/159 101/138/159 97/140/159 
f 97/142/160 2/137/160 88/100/160 
f 88/100/160 87/143/160 97/142/160 
f 2/144/161 81/93/161 84/96/161 
f 84/96/161 3/145/161 2/144/161 
f 97/146/162 82/147/162 81/93/162 
f 81/93/162 2/144/162 97/146/162 
f 100/148/163 83/149/163 82/150/163 
f 82/150/163 97/151/163 100/148/163 
f 100/148/164 3/145/164 84/96/164 
f 84/96/164 83/149/164 100/148/164 
f 3/152/165 93/105/165 96/108/165 
f 96/108/165 8/153/165 3/152/165 
f 100/154/166 94/155/166 93/105/166 
f 93/105/166 3/152/166 100/154/166 
f 103/156/167 95/157/167 94/155/167 
f 94/155/167 100/154/167 103/156/167 
f 103/158/168 8/153/168 96/108/168 
f 96/108/168 95/159/168 103/158/168 
f 102/160/169 106/161/169 107/162/169 
f 107/162/169 98/163/169 102/160/169 
f 99/164/170 108/165/170 109/166/170 
f 109/166/170 104/167/170 99/164/170 
f 106/161/171 109/166/171 108/165/171 
f 108/165/171 107/162/171 106/161/171 
f 104/168/172 110/169/172 111/170/172 
f 111/170/172 102/171/172 104/168/172 
f 109/172/173 112/173/173 110/169/173 
f 110/169/173 104/168/173 109/172/173 
f 109/172/174 106/174/174 113/175/174 
f 113/175/174 112/173/174 109/172/174 
f 106/176/175 102/171/175 111/170/175 
f 111/170/175 113/177/175 106/176/175 
f 98/178/176 114/179/176 115/180/176 
f 115/180/176 99/181/176 98/178/176 
f 107/182/177 116/183/177 114/179/177 
f 114/179/177 98/178/177 107/182/177 
f 107/184/178 108/185/178 117/186/178 
f 117/186/178 116/187/178 107/184/178 
f 108/185/179 99/181/179 115/180/179 
f 115/180/179 117/186/179 108/185/179 
f 111/170/180 110/169/180 118/188/180 
f 118/188/180 119/189/180 111/170/180 
f 112/173/181 120/190/181 118/188/181 
f 118/188/181 110/169/181 112/173/181 
f 113/175/182 121/191/182 120/190/182 
f 120/190/182 112/173/182 113/175/182 
f 113/177/183 111/170/183 119/189/183 
f 119/189/183 121/192/183 113/177/183 
f 115/180/184 114/179/184 122/193/184 
f 122/193/184 123/194/184 115/180/184 
f 116/183/185 124/195/185 122/193/185 
f 122/193/185 114/179/185 116/183/185 
f 117/186/186 125/196/186 124/197/186 
f 124/197/186 116/187/186 117/186/186 
f 117/186/187 115/180/187 123/194/187 
f 123/194/187 125/196/187 117/186/187 
f 123/194/188 122/193/188 126/198/188 
f 126/198/188 127/199/188 123/194/188 
f 122/193/189 124/195/189 128/200/190 
f 128/200/190 126/198/191 122/193/189 
f 125/196/192 129/201/192 128/202/192 
f 128/202/192 124/197/192 125/196/192 
f 123/194/193 127/199/194 129/201/195 
f 129/201/195 125/196/193 123/194/193 
f 118/188/196 130/203/196 131/204/196 
f 131/204/196 119/189/196 118/188/196 
f 118/188/197 120/190/197 132/205/198 
f 132/205/198 130/203/199 118/188/197 
f 120/190/200 121/191/200 133/206/200 
f 133/206/200 132/205/200 120/190/200 
f 119/189/201 131/204/202 133/207/203 
f 133/207/203 121/192/201 119/189/201 
f 134/208/204 133/207/203 131/204/202 
f 131/204/202 135/209/205 134/208/204 
f 136/210/206 132/205/207 133/206/207 
f 133/206/207 134/211/208 136/210/206 
f 136/210/209 137/212/210 130/203/199 
f 130/203/199 132/205/198 136/210/209 
f 137/212/211 135/209/212 131/204/213 
f 131/204/213 130/203/213 137/212/211 
f 126/198/191 128/200/190 134/208/204 
f 134/208/204 135/209/205 126/198/191 
f 129/201/214 136/210/206 134/211/208 
f 134/211/208 128/202/214 129/201/214 
f 127/199/194 137/212/210 136/210/209 
f 136/210/209 129/201/195 127/199/194 
f 127/199/215 126/198/215 135/209/212 
f 135/209/212 137/212/211 127/199/215 
# 274 faces

